<?xml version="1.0" encoding="UTF-8" standalone="no"?><svg xmlns="http://www.w3.org/2000/svg" xmlns:xlink="http://www.w3.org/1999/xlink" contentScriptType="application/ecmascript" contentStyleType="text/css" height="579px" preserveAspectRatio="none" style="width:1176px;height:579px;" version="1.1" viewBox="0 0 1176 579" width="1176px" zoomAndPan="magnify"><defs><filter height="300%" id="fnykg2af5wnyj" width="300%" x="-1" y="-1"><feGaussianBlur result="blurOut" stdDeviation="2.0"/><feColorMatrix in="blurOut" result="blurOut2" type="matrix" values="0 0 0 0 0 0 0 0 0 0 0 0 0 0 0 0 0 0 .4 0"/><feOffset dx="4.0" dy="4.0" in="blurOut2" result="blurOut3"/><feBlend in="SourceGraphic" in2="blurOut3" mode="normal"/></filter></defs><g><text fill="#000000" font-family="sans-serif" font-size="18" lengthAdjust="spacingAndGlyphs" textLength="396" x="396" y="16.708">CityGML - 3.0 - Versioning - Only XSD based</text><text fill="#000000" font-family="sans-serif" font-size="18" lengthAdjust="spacingAndGlyphs" textLength="414" x="387" y="37.6611">http://www.opengis.net/citygml/versioning/3.0</text><!--MD5=[2004b18162e643ac95580a17009617c6]
cluster vers--><polygon fill="#FFFFFF" filter="url(#fnykg2af5wnyj)" points="187,144.9063,228,144.9063,235,167.2031,1154,167.2031,1154,457.9063,187,457.9063,187,144.9063" style="stroke: #000000; stroke-width: 1.5;"/><line style="stroke: #000000; stroke-width: 1.5;" x1="187" x2="235" y1="167.2031" y2="167.2031"/><text fill="#000000" font-family="sans-serif" font-size="14" font-weight="bold" lengthAdjust="spacingAndGlyphs" textLength="35" x="191" y="159.9014">vers</text><!--MD5=[0757b915c34ae29f53ee95b236439293]
class vers:Transaction--><rect fill="#FEFECE" filter="url(#fnykg2af5wnyj)" height="66.7422" id="vers:Transaction" style="stroke: #A80036; stroke-width: 1.5;" width="202" x="478" y="205.4063"/><ellipse cx="522.75" cy="224.375" fill="#ADD1B2" rx="11" ry="11" style="stroke: #A80036; stroke-width: 1.0;"/><path d="M525.7188,230.0156 Q525.1406,230.3125 524.5,230.4531 Q523.8594,230.6094 523.1563,230.6094 Q520.6563,230.6094 519.3281,228.9688 Q518.0156,227.3125 518.0156,224.1875 Q518.0156,221.0625 519.3281,219.4063 Q520.6563,217.75 523.1563,217.75 Q523.8594,217.75 524.5,217.9063 Q525.1563,218.0625 525.7188,218.3594 L525.7188,221.0781 Q525.0938,220.5 524.5,220.2344 Q523.9063,219.9531 523.2813,219.9531 Q521.9375,219.9531 521.25,221.0313 Q520.5625,222.0938 520.5625,224.1875 Q520.5625,226.2813 521.25,227.3594 Q521.9375,228.4219 523.2813,228.4219 Q523.9063,228.4219 524.5,228.1563 Q525.0938,227.875 525.7188,227.2969 L525.7188,230.0156 Z "/><text fill="#000000" font-family="sans-serif" font-size="12" font-style="italic" lengthAdjust="spacingAndGlyphs" textLength="74" x="558.25" y="221.5449">«DataType»</text><text fill="#000000" font-family="sans-serif" font-size="12" lengthAdjust="spacingAndGlyphs" textLength="104" x="543.25" y="235.5137">vers:Transaction</text><line style="stroke: #A80036; stroke-width: 1.5;" x1="479" x2="679" y1="243.3438" y2="243.3438"/><text fill="#000000" font-family="sans-serif" font-size="11" lengthAdjust="spacingAndGlyphs" textLength="190" x="484" y="257.5542">type : vers:TransactionTypeValue</text><line style="stroke: #A80036; stroke-width: 1.5;" x1="479" x2="679" y1="264.1484" y2="264.1484"/><!--MD5=[5c3ac9bd8d58665f60bfc7076b635042]
class vers:Version--><rect fill="#FEFECE" filter="url(#fnykg2af5wnyj)" height="66.7422" id="vers:Version" style="stroke: #A80036; stroke-width: 1.5;" width="139" x="216.5" y="374.9063"/><ellipse cx="239.6" cy="393.875" fill="#ADD1B2" rx="11" ry="11" style="stroke: #A80036; stroke-width: 1.0;"/><path d="M242.5688,399.5156 Q241.9906,399.8125 241.35,399.9531 Q240.7094,400.1094 240.0063,400.1094 Q237.5063,400.1094 236.1781,398.4688 Q234.8656,396.8125 234.8656,393.6875 Q234.8656,390.5625 236.1781,388.9063 Q237.5063,387.25 240.0063,387.25 Q240.7094,387.25 241.35,387.4063 Q242.0063,387.5625 242.5688,387.8594 L242.5688,390.5781 Q241.9438,390 241.35,389.7344 Q240.7563,389.4531 240.1313,389.4531 Q238.7875,389.4531 238.1,390.5313 Q237.4125,391.5938 237.4125,393.6875 Q237.4125,395.7813 238.1,396.8594 Q238.7875,397.9219 240.1313,397.9219 Q240.7563,397.9219 241.35,397.6563 Q241.9438,397.375 242.5688,396.7969 L242.5688,399.5156 Z "/><text fill="#000000" font-family="sans-serif" font-size="12" font-style="italic" lengthAdjust="spacingAndGlyphs" textLength="93" x="253.4" y="391.0449">«FeatureType»</text><text fill="#000000" font-family="sans-serif" font-size="12" lengthAdjust="spacingAndGlyphs" textLength="77" x="261.4" y="405.0137">vers:Version</text><line style="stroke: #A80036; stroke-width: 1.5;" x1="217.5" x2="354.5" y1="412.8438" y2="412.8438"/><polygon fill="none" points="227.5,418.8438,231.5,422.8438,227.5,426.8438,223.5,422.8438" style="stroke: #B38D22; stroke-width: 1.0;"/><text fill="#000000" font-family="sans-serif" font-size="11" lengthAdjust="spacingAndGlyphs" textLength="113" x="236.5" y="427.0542">tag : xs:string [0..*]</text><line style="stroke: #A80036; stroke-width: 1.5;" x1="217.5" x2="354.5" y1="433.6484" y2="433.6484"/><!--MD5=[0be822a1738aa5600de105700b2ce12e]
class vers:VersionTransition--><rect fill="#FEFECE" filter="url(#fnykg2af5wnyj)" height="105.1563" id="vers:VersionTransition" style="stroke: #A80036; stroke-width: 1.5;" width="240" x="203" y="186.4063"/><ellipse cx="249.25" cy="205.375" fill="#ADD1B2" rx="11" ry="11" style="stroke: #A80036; stroke-width: 1.0;"/><path d="M252.2188,211.0156 Q251.6406,211.3125 251,211.4531 Q250.3594,211.6094 249.6563,211.6094 Q247.1563,211.6094 245.8281,209.9688 Q244.5156,208.3125 244.5156,205.1875 Q244.5156,202.0625 245.8281,200.4063 Q247.1563,198.75 249.6563,198.75 Q250.3594,198.75 251,198.9063 Q251.6563,199.0625 252.2188,199.3594 L252.2188,202.0781 Q251.5938,201.5 251,201.2344 Q250.4063,200.9531 249.7813,200.9531 Q248.4375,200.9531 247.75,202.0313 Q247.0625,203.0938 247.0625,205.1875 Q247.0625,207.2813 247.75,208.3594 Q248.4375,209.4219 249.7813,209.4219 Q250.4063,209.4219 251,209.1563 Q251.5938,208.875 252.2188,208.2969 L252.2188,211.0156 Z "/><text fill="#000000" font-family="sans-serif" font-size="12" font-style="italic" lengthAdjust="spacingAndGlyphs" textLength="93" x="292.75" y="202.5449">«FeatureType»</text><text fill="#000000" font-family="sans-serif" font-size="12" lengthAdjust="spacingAndGlyphs" textLength="139" x="269.75" y="216.5137">vers:VersionTransition</text><line style="stroke: #A80036; stroke-width: 1.5;" x1="204" x2="442" y1="224.3438" y2="224.3438"/><polygon fill="none" points="214,230.3438,218,234.3438,214,238.3438,210,234.3438" style="stroke: #B38D22; stroke-width: 1.0;"/><text fill="#000000" font-family="sans-serif" font-size="11" lengthAdjust="spacingAndGlyphs" textLength="136" x="223" y="238.5542">reason : xs:string [0..1]</text><polygon fill="none" points="214,243.1484,218,247.1484,214,251.1484,210,247.1484" style="stroke: #B38D22; stroke-width: 1.0;"/><text fill="#000000" font-family="sans-serif" font-size="11" lengthAdjust="spacingAndGlyphs" textLength="176" x="223" y="251.3589">clonePredecessor : xs:boolean</text><text fill="#000000" font-family="sans-serif" font-size="11" lengthAdjust="spacingAndGlyphs" textLength="214" x="223" y="264.1636">type : vers:TransitionTypeValue [0..1]</text><rect fill="none" height="6" style="stroke: #C82930; stroke-width: 1.0;" width="6" x="211" y="270.7578"/><text fill="#000000" font-family="sans-serif" font-size="11" lengthAdjust="spacingAndGlyphs" textLength="205" x="223" y="276.9683">transaction : vers:Transaction [0..*]</text><line style="stroke: #A80036; stroke-width: 1.5;" x1="204" x2="442" y1="283.5625" y2="283.5625"/><!--MD5=[c1e0c0989a4223809ab2ff8bdc6aeb34]
class vers:TransactionTypeValue--><rect fill="#FEFECE" filter="url(#fnykg2af5wnyj)" height="92.3516" id="vers:TransactionTypeValue" style="stroke: #A80036; stroke-width: 1.5;" width="200" x="715" y="192.9063"/><ellipse cx="730" cy="211.875" fill="#ADD1B2" rx="11" ry="11" style="stroke: #A80036; stroke-width: 1.0;"/><path d="M732.9688,217.5156 Q732.3906,217.8125 731.75,217.9531 Q731.1094,218.1094 730.4063,218.1094 Q727.9063,218.1094 726.5781,216.4688 Q725.2656,214.8125 725.2656,211.6875 Q725.2656,208.5625 726.5781,206.9063 Q727.9063,205.25 730.4063,205.25 Q731.1094,205.25 731.75,205.4063 Q732.4063,205.5625 732.9688,205.8594 L732.9688,208.5781 Q732.3438,208 731.75,207.7344 Q731.1563,207.4531 730.5313,207.4531 Q729.1875,207.4531 728.5,208.5313 Q727.8125,209.5938 727.8125,211.6875 Q727.8125,213.7813 728.5,214.8594 Q729.1875,215.9219 730.5313,215.9219 Q731.1563,215.9219 731.75,215.6563 Q732.3438,215.375 732.9688,214.7969 L732.9688,217.5156 Z "/><text fill="#000000" font-family="sans-serif" font-size="12" font-style="italic" lengthAdjust="spacingAndGlyphs" textLength="94" x="781" y="209.0449">«Enumeration»</text><text fill="#000000" font-family="sans-serif" font-size="12" lengthAdjust="spacingAndGlyphs" textLength="168" x="744" y="223.0137">vers:TransactionTypeValue</text><line style="stroke: #A80036; stroke-width: 1.5;" x1="716" x2="914" y1="230.8438" y2="230.8438"/><text fill="#000000" font-family="sans-serif" font-size="11" lengthAdjust="spacingAndGlyphs" textLength="33" x="721" y="245.0542">insert</text><text fill="#000000" font-family="sans-serif" font-size="11" lengthAdjust="spacingAndGlyphs" textLength="35" x="721" y="257.8589">delete</text><text fill="#000000" font-family="sans-serif" font-size="11" lengthAdjust="spacingAndGlyphs" textLength="42" x="721" y="270.6636">replace</text><line style="stroke: #A80036; stroke-width: 1.5;" x1="716" x2="914" y1="277.2578" y2="277.2578"/><!--MD5=[73c0f3e4560fe0253cc417b85649e079]
class vers:TransitionTypeValue--><rect fill="#FEFECE" filter="url(#fnykg2af5wnyj)" height="117.9609" id="vers:TransitionTypeValue" style="stroke: #A80036; stroke-width: 1.5;" width="188" x="950" y="179.9063"/><ellipse cx="965" cy="198.875" fill="#ADD1B2" rx="11" ry="11" style="stroke: #A80036; stroke-width: 1.0;"/><path d="M967.9688,204.5156 Q967.3906,204.8125 966.75,204.9531 Q966.1094,205.1094 965.4063,205.1094 Q962.9063,205.1094 961.5781,203.4688 Q960.2656,201.8125 960.2656,198.6875 Q960.2656,195.5625 961.5781,193.9063 Q962.9063,192.25 965.4063,192.25 Q966.1094,192.25 966.75,192.4063 Q967.4063,192.5625 967.9688,192.8594 L967.9688,195.5781 Q967.3438,195 966.75,194.7344 Q966.1563,194.4531 965.5313,194.4531 Q964.1875,194.4531 963.5,195.5313 Q962.8125,196.5938 962.8125,198.6875 Q962.8125,200.7813 963.5,201.8594 Q964.1875,202.9219 965.5313,202.9219 Q966.1563,202.9219 966.75,202.6563 Q967.3438,202.375 967.9688,201.7969 L967.9688,204.5156 Z "/><text fill="#000000" font-family="sans-serif" font-size="12" font-style="italic" lengthAdjust="spacingAndGlyphs" textLength="94" x="1010" y="196.0449">«Enumeration»</text><text fill="#000000" font-family="sans-serif" font-size="12" lengthAdjust="spacingAndGlyphs" textLength="156" x="979" y="210.0137">vers:TransitionTypeValue</text><line style="stroke: #A80036; stroke-width: 1.5;" x1="951" x2="1137" y1="217.8438" y2="217.8438"/><text fill="#000000" font-family="sans-serif" font-size="11" lengthAdjust="spacingAndGlyphs" textLength="45" x="956" y="232.0542">planned</text><text fill="#000000" font-family="sans-serif" font-size="11" lengthAdjust="spacingAndGlyphs" textLength="44" x="956" y="244.8589">realized</text><text fill="#000000" font-family="sans-serif" font-size="11" lengthAdjust="spacingAndGlyphs" textLength="117" x="956" y="257.6636">historicalSuccession</text><text fill="#000000" font-family="sans-serif" font-size="11" lengthAdjust="spacingAndGlyphs" textLength="22" x="956" y="270.4683">fork</text><text fill="#000000" font-family="sans-serif" font-size="11" lengthAdjust="spacingAndGlyphs" textLength="37" x="956" y="283.2729">merge</text><line style="stroke: #A80036; stroke-width: 1.5;" x1="951" x2="1137" y1="289.8672" y2="289.8672"/><!--MD5=[3e694a2d5d428f93456e24417fbbe143]
class core:AbstractFeatureWithLifespan--><rect fill="#FEFECE" filter="url(#fnykg2af5wnyj)" height="48" id="core:AbstractFeatureWithLifespan" style="stroke: #A80036; stroke-width: 1.5;" width="245" x="316.5" y="520.9063"/><ellipse cx="331.5" cy="536.9063" fill="#A9DCDF" rx="11" ry="11" style="stroke: #A80036; stroke-width: 1.0;"/><path d="M331.6094,532.25 L330.4531,537.3281 L332.7813,537.3281 L331.6094,532.25 Z M330.125,530.0156 L333.1094,530.0156 L336.4688,542.4063 L334.0156,542.4063 L333.25,539.3438 L329.9688,539.3438 L329.2188,542.4063 L326.7813,542.4063 L330.125,530.0156 Z "/><text fill="#000000" font-family="sans-serif" font-size="12" font-style="italic" lengthAdjust="spacingAndGlyphs" textLength="213" x="345.5" y="541.0605">core:AbstractFeatureWithLifespan</text><line style="stroke: #A80036; stroke-width: 1.5;" x1="317.5" x2="560.5" y1="552.9063" y2="552.9063"/><line style="stroke: #A80036; stroke-width: 1.5;" x1="317.5" x2="560.5" y1="560.9063" y2="560.9063"/><!--MD5=[f93ce42da6ffab4ac4048b223f6149b1]
class core:AbstractVersion--><rect fill="#FEFECE" filter="url(#fnykg2af5wnyj)" height="48" id="core:AbstractVersion" style="stroke: #A80036; stroke-width: 1.5;" width="162" x="6" y="214.9063"/><ellipse cx="21" cy="230.9063" fill="#A9DCDF" rx="11" ry="11" style="stroke: #A80036; stroke-width: 1.0;"/><path d="M21.1094,226.25 L19.9531,231.3281 L22.2813,231.3281 L21.1094,226.25 Z M19.625,224.0156 L22.6094,224.0156 L25.9688,236.4063 L23.5156,236.4063 L22.75,233.3438 L19.4688,233.3438 L18.7188,236.4063 L16.2813,236.4063 L19.625,224.0156 Z "/><text fill="#000000" font-family="sans-serif" font-size="12" font-style="italic" lengthAdjust="spacingAndGlyphs" textLength="130" x="35" y="235.0605">core:AbstractVersion</text><line style="stroke: #A80036; stroke-width: 1.5;" x1="7" x2="167" y1="246.9063" y2="246.9063"/><line style="stroke: #A80036; stroke-width: 1.5;" x1="7" x2="167" y1="254.9063" y2="254.9063"/><!--MD5=[fa81de36b9480aeaefd45aed96f462f2]
class core:AbstractVersionTransition--><rect fill="#FEFECE" filter="url(#fnykg2af5wnyj)" height="48" id="core:AbstractVersionTransition" style="stroke: #A80036; stroke-width: 1.5;" width="223" x="211.5" y="49.9063"/><ellipse cx="226.5" cy="65.9063" fill="#A9DCDF" rx="11" ry="11" style="stroke: #A80036; stroke-width: 1.0;"/><path d="M226.6094,61.25 L225.4531,66.3281 L227.7813,66.3281 L226.6094,61.25 Z M225.125,59.0156 L228.1094,59.0156 L231.4688,71.4063 L229.0156,71.4063 L228.25,68.3438 L224.9688,68.3438 L224.2188,71.4063 L221.7813,71.4063 L225.125,59.0156 Z "/><text fill="#000000" font-family="sans-serif" font-size="12" font-style="italic" lengthAdjust="spacingAndGlyphs" textLength="191" x="240.5" y="70.0605">core:AbstractVersionTransition</text><line style="stroke: #A80036; stroke-width: 1.5;" x1="212.5" x2="433.5" y1="81.9063" y2="81.9063"/><line style="stroke: #A80036; stroke-width: 1.5;" x1="212.5" x2="433.5" y1="89.9063" y2="89.9063"/><!--MD5=[084f953802e842130a199eb578543c2c]
reverse link core:AbstractVersion to vers:Version--><path d="M130.09,276.1763 C164.96,305.5263 213.65,346.5063 247.3,374.8262 " fill="none" id="core:AbstractVersion&lt;-vers:Version" style="stroke: #A80036; stroke-width: 1.0;"/><polygon fill="none" points="125.46,281.4263,114.67,263.1963,134.48,270.7163,125.46,281.4263" style="stroke: #A80036; stroke-width: 1.0;"/><!--MD5=[ea2cfb29a168ea614390d640e088a92f]
reverse link core:AbstractVersionTransition to vers:VersionTransition--><path d="M323,118.1463 C323,139.0263 323,164.2362 323,186.1363 " fill="none" id="core:AbstractVersionTransition&lt;-vers:VersionTransition" style="stroke: #A80036; stroke-width: 1.0;"/><polygon fill="none" points="316,117.9162,323,97.9162,330,117.9162,316,117.9162" style="stroke: #A80036; stroke-width: 1.0;"/><!--MD5=[b00992664277a7e472272fd1eae08ddd]
link vers:Transaction to core:AbstractFeatureWithLifespan--><path d="M542.71,272.6163 C517.03,297.9363 484.06,335.2763 466,374.9063 C445,420.9763 440,480.5863 438.99,515.2963 " fill="none" id="vers:Transaction-&gt;core:AbstractFeatureWithLifespan" style="stroke: #A80036; stroke-width: 1.0; stroke-dasharray: 7.0,7.0;"/><polygon fill="#A80036" points="438.87,520.6563,443.0746,511.75,438.9843,515.6576,435.0767,511.5672,438.87,520.6563" style="stroke: #A80036; stroke-width: 1.0;"/><text fill="#000000" font-family="sans-serif" font-size="13" lengthAdjust="spacingAndGlyphs" textLength="68" x="467" y="412.9731">oldFeature</text><text fill="#000000" font-family="sans-serif" font-size="13" lengthAdjust="spacingAndGlyphs" textLength="24" x="411.9133" y="510.0003">0..1</text><!--MD5=[b00992664277a7e472272fd1eae08ddd]
link vers:Transaction to core:AbstractFeatureWithLifespan--><path d="M580.52,272.7663 C581.16,319.1663 576.66,405.0263 540,465.9063 C527.14,487.2563 506.08,504.9063 486.51,517.9762 " fill="none" id="vers:Transaction-&gt;core:AbstractFeatureWithLifespan-1" style="stroke: #A80036; stroke-width: 1.0; stroke-dasharray: 7.0,7.0;"/><polygon fill="#A80036" points="482.1,520.8663,491.8239,519.3023,486.2886,518.1358,487.4551,512.6005,482.1,520.8663" style="stroke: #A80036; stroke-width: 1.0;"/><text fill="#000000" font-family="sans-serif" font-size="13" lengthAdjust="spacingAndGlyphs" textLength="74" x="573" y="412.9731">newFeature</text><text fill="#000000" font-family="sans-serif" font-size="13" lengthAdjust="spacingAndGlyphs" textLength="24" x="466.0694" y="509.868">0..1</text><!--MD5=[fbde418863985372496b45fb5cf5d5d7]
reverse link vers:Version to core:AbstractFeatureWithLifespan--><path d="M293.03,454.7063 C296.87,467.6263 302.82,480.8863 312,490.9063 C323.63,503.5863 338.76,513.3263 354.51,520.7763 " fill="none" id="vers:Version&lt;-core:AbstractFeatureWithLifespan" style="stroke: #A80036; stroke-width: 1.0;"/><polygon fill="#FFFFFF" points="289.85,442.0463,287.4355,448.8411,292.7791,453.6833,295.1935,446.8884,289.85,442.0463" style="stroke: #A80036; stroke-width: 1.0;"/><text fill="#000000" font-family="sans-serif" font-size="13" lengthAdjust="spacingAndGlyphs" textLength="99" x="313" y="486.9731">versionMember</text><text fill="#000000" font-family="sans-serif" font-size="13" lengthAdjust="spacingAndGlyphs" textLength="23" x="306.9126" y="509.755">0..*</text><!--MD5=[e3ceb66d9eb9a0d71636032ecf3c508b]
link vers:VersionTransition to vers:Version--><path d="M281.76,291.8563 C274.86,303.1563 268.73,315.4663 265,327.9063 C260.91,341.5463 263.19,356.6263 267.51,369.9563 " fill="none" id="vers:VersionTransition-&gt;vers:Version" style="stroke: #A80036; stroke-width: 1.0; stroke-dasharray: 7.0,7.0;"/><polygon fill="#A80036" points="269.18,374.7763,270.0312,364.9642,267.5518,370.0488,262.4673,367.5694,269.18,374.7763" style="stroke: #A80036; stroke-width: 1.0;"/><text fill="#000000" font-family="sans-serif" font-size="13" lengthAdjust="spacingAndGlyphs" textLength="30" x="266" y="340.9731">from</text><text fill="#000000" font-family="sans-serif" font-size="13" lengthAdjust="spacingAndGlyphs" textLength="24" x="239.5061" y="363.7841">0..1</text><!--MD5=[e3ceb66d9eb9a0d71636032ecf3c508b]
link vers:VersionTransition to vers:Version--><path d="M312.5,291.5063 C308.95,308.5363 304.9,327.5563 301,344.9063 C299.2,352.9263 297.19,361.5163 295.24,369.6763 " fill="none" id="vers:VersionTransition-&gt;vers:Version-1" style="stroke: #A80036; stroke-width: 1.0; stroke-dasharray: 7.0,7.0;"/><polygon fill="#A80036" points="294.04,374.6863,300.0334,366.8709,295.209,369.8248,292.2551,365.0005,294.04,374.6863" style="stroke: #A80036; stroke-width: 1.0;"/><text fill="#000000" font-family="sans-serif" font-size="13" lengthAdjust="spacingAndGlyphs" textLength="13" x="305" y="340.9731">to</text><text fill="#000000" font-family="sans-serif" font-size="13" lengthAdjust="spacingAndGlyphs" textLength="24" x="269.2851" y="363.9328">0..1</text><!--MD5=[accee887a21d94dd08f531b210dc1d0b]
link vers:TransactionTypeValue to vers:TransitionTypeValue--><!--MD5=[49f4fb70bd16b159b09072776cd2f8b4]
@startuml
title
  CityGML - 3.0 - Versioning - Only XSD based
  http://www.opengis.net/citygml/versioning/3.0
end title

package vers {
abstract class "vers:ADEOfVersion" $adeOf
class "vers:ADEOfVersionProperty" $property $adeOf {
  ADEOfVersion : vers:ADEOfVersion
}
abstract class "vers:ADEOfVersionTransition" $adeOf
class "vers:ADEOfVersionTransitionProperty" $property $adeOf {
  ADEOfVersionTransition : vers:ADEOfVersionTransition
}
class "vers:Transaction" <<DataType>> {
  type : vers:TransactionTypeValue
}
class "vers:TransactionProperty" $property {
  Transaction : vers:Transaction
}
class "vers:Version" <<FeatureType>> {
  # tag : xs:string [0..*]
  ~ adeOfVersion : vers:ADEOfVersion [0..*]
}
class "vers:VersionProperty" $property {
  Version : vers:Version
}
class "vers:VersionTransition" <<FeatureType>> {
  # reason : xs:string [0..1]
  # clonePredecessor : xs:boolean
  type : vers:TransitionTypeValue [0..1]
  ~ adeOfVersionTransition : vers:ADEOfVersionTransition [0..*]
  - transaction : vers:Transaction [0..*]
}
class "vers:VersionTransitionProperty" $property {
  VersionTransition : vers:VersionTransition
}

class "vers:TransactionTypeValue" <<Enumeration>> {
  insert
  delete
  replace
}
class "vers:TransitionTypeValue" <<Enumeration>> {
  planned
  realized
  historicalSuccession
  fork
  merge
}
}

abstract class "core:AbstractFeatureWithLifespan"
abstract class "core:AbstractVersion"
abstract class "core:AbstractVersionTransition"

"core:AbstractVersion" <|- - "vers:Version"
"core:AbstractVersionTransition" <|- - "vers:VersionTransition"

"vers:Transaction" ..> "0..1" "core:AbstractFeatureWithLifespan" : oldFeature
"vers:Transaction" ..> "0..1" "core:AbstractFeatureWithLifespan" : newFeature
"vers:Version" o- - "0..*" "core:AbstractFeatureWithLifespan" : versionMember
"vers:VersionTransition" ..> "0..1" "vers:Version" : from
"vers:VersionTransition" ..> "0..1" "vers:Version" : to

remove $adeOf

remove $property

hide package members


@enduml

PlantUML version 1.2020.02(Sun Mar 01 11:22:07 CET 2020)
(GPL source distribution)
Java Runtime: OpenJDK Runtime Environment
JVM: OpenJDK 64-Bit Server VM
Java Version: 21.0.11+10-1-24.04.2-Ubuntu
Operating System: Linux
Default Encoding: UTF-8
Language: en
Country: US
--></g></svg>