<?xml version="1.0" encoding="UTF-8" standalone="no"?><svg xmlns="http://www.w3.org/2000/svg" xmlns:xlink="http://www.w3.org/1999/xlink" contentScriptType="application/ecmascript" contentStyleType="text/css" height="554px" preserveAspectRatio="none" style="width:1452px;height:554px;" version="1.1" viewBox="0 0 1452 554" width="1452px" zoomAndPan="magnify"><defs><filter height="300%" id="f1fxmugk9gnz99" width="300%" x="-1" y="-1"><feGaussianBlur result="blurOut" stdDeviation="2.0"/><feColorMatrix in="blurOut" result="blurOut2" type="matrix" values="0 0 0 0 0 0 0 0 0 0 0 0 0 0 0 0 0 0 .4 0"/><feOffset dx="4.0" dy="4.0" in="blurOut2" result="blurOut3"/><feBlend in="SourceGraphic" in2="blurOut3" mode="normal"/></filter></defs><g><text fill="#000000" font-family="sans-serif" font-size="18" lengthAdjust="spacingAndGlyphs" textLength="402" x="528.5" y="16.708">CityGML - 2.0 - Waterbody - Only XSD based</text><text fill="#000000" font-family="sans-serif" font-size="18" lengthAdjust="spacingAndGlyphs" textLength="418" x="520.5" y="37.6611">http://www.opengis.net/citygml/waterbody/2.0</text><!--MD5=[a9ea26d2fda1e85109481a3d7d870a98]
class AbstractWaterObject--><rect fill="#FEFECE" filter="url(#f1fxmugk9gnz99)" height="66.7422" id="AbstractWaterObject" style="stroke: #A80036; stroke-width: 1.5;" width="307" x="87" y="176.9063"/><ellipse cx="171.75" cy="195.875" fill="#A9DCDF" rx="11" ry="11" style="stroke: #A80036; stroke-width: 1.0;"/><path d="M171.8594,191.2188 L170.7031,196.2969 L173.0313,196.2969 L171.8594,191.2188 Z M170.375,188.9844 L173.3594,188.9844 L176.7188,201.375 L174.2656,201.375 L173.5,198.3125 L170.2188,198.3125 L169.4688,201.375 L167.0313,201.375 L170.375,188.9844 Z "/><text fill="#000000" font-family="sans-serif" font-size="12" font-style="italic" lengthAdjust="spacingAndGlyphs" textLength="74" x="219.75" y="193.0449">«DataType»</text><text fill="#000000" font-family="sans-serif" font-size="12" font-style="italic" lengthAdjust="spacingAndGlyphs" textLength="129" x="192.25" y="207.0137">AbstractWaterObject</text><line style="stroke: #A80036; stroke-width: 1.5;" x1="88" x2="393" y1="214.8438" y2="214.8438"/><polygon fill="none" points="98,220.8438,102,224.8438,98,228.8438,94,224.8438" style="stroke: #B38D22; stroke-width: 1.0;"/><text fill="#000000" font-family="sans-serif" font-size="11" lengthAdjust="spacingAndGlyphs" textLength="281" x="107" y="229.0542">: _GenericApplicationPropertyOfWaterObject [0..*]</text><line style="stroke: #A80036; stroke-width: 1.5;" x1="88" x2="393" y1="235.6484" y2="235.6484"/><!--MD5=[80fb9b4a7e7871b5547767bfe29c7506]
class WaterBody--><rect fill="#FEFECE" filter="url(#f1fxmugk9gnz99)" height="220.3984" id="WaterBody" style="stroke: #A80036; stroke-width: 1.5;" width="299" x="6" y="322.9063"/><ellipse cx="116.25" cy="341.875" fill="#ADD1B2" rx="11" ry="11" style="stroke: #A80036; stroke-width: 1.0;"/><path d="M119.2188,347.5156 Q118.6406,347.8125 118,347.9531 Q117.3594,348.1094 116.6563,348.1094 Q114.1563,348.1094 112.8281,346.4688 Q111.5156,344.8125 111.5156,341.6875 Q111.5156,338.5625 112.8281,336.9063 Q114.1563,335.25 116.6563,335.25 Q117.3594,335.25 118,335.4063 Q118.6563,335.5625 119.2188,335.8594 L119.2188,338.5781 Q118.5938,338 118,337.7344 Q117.4063,337.4531 116.7813,337.4531 Q115.4375,337.4531 114.75,338.5313 Q114.0625,339.5938 114.0625,341.6875 Q114.0625,343.7813 114.75,344.8594 Q115.4375,345.9219 116.7813,345.9219 Q117.4063,345.9219 118,345.6563 Q118.5938,345.375 119.2188,344.7969 L119.2188,347.5156 Z "/><text fill="#000000" font-family="sans-serif" font-size="12" font-style="italic" lengthAdjust="spacingAndGlyphs" textLength="74" x="134.75" y="339.0449">«DataType»</text><text fill="#000000" font-family="sans-serif" font-size="12" lengthAdjust="spacingAndGlyphs" textLength="67" x="138.25" y="353.0137">WaterBody</text><line style="stroke: #A80036; stroke-width: 1.5;" x1="7" x2="304" y1="360.8438" y2="360.8438"/><polygon fill="none" points="17,366.8438,21,370.8438,17,374.8438,13,370.8438" style="stroke: #B38D22; stroke-width: 1.0;"/><text fill="#000000" font-family="sans-serif" font-size="11" lengthAdjust="spacingAndGlyphs" textLength="130" x="26" y="375.0542">class : gml:Code [0..1]</text><polygon fill="none" points="17,379.6484,21,383.6484,17,387.6484,13,383.6484" style="stroke: #B38D22; stroke-width: 1.0;"/><text fill="#000000" font-family="sans-serif" font-size="11" lengthAdjust="spacingAndGlyphs" textLength="144" x="26" y="387.8589">function : gml:Code [0..*]</text><polygon fill="none" points="17,392.4531,21,396.4531,17,400.4531,13,396.4531" style="stroke: #B38D22; stroke-width: 1.0;"/><text fill="#000000" font-family="sans-serif" font-size="11" lengthAdjust="spacingAndGlyphs" textLength="134" x="26" y="400.6636">usage : gml:Code [0..*]</text><polygon fill="none" points="17,405.2578,21,409.2578,17,413.2578,13,409.2578" style="stroke: #B38D22; stroke-width: 1.0;"/><text fill="#000000" font-family="sans-serif" font-size="11" lengthAdjust="spacingAndGlyphs" textLength="213" x="26" y="413.4683">lod0MultiCurve : gml:MultiCurve [0..1]</text><polygon fill="none" points="17,418.0625,21,422.0625,17,426.0625,13,422.0625" style="stroke: #B38D22; stroke-width: 1.0;"/><text fill="#000000" font-family="sans-serif" font-size="11" lengthAdjust="spacingAndGlyphs" textLength="235" x="26" y="426.2729">lod0MultiSurface : gml:MultiSurface [0..1]</text><polygon fill="none" points="17,430.8672,21,434.8672,17,438.8672,13,434.8672" style="stroke: #B38D22; stroke-width: 1.0;"/><text fill="#000000" font-family="sans-serif" font-size="11" lengthAdjust="spacingAndGlyphs" textLength="213" x="26" y="439.0776">lod1MultiCurve : gml:MultiCurve [0..1]</text><polygon fill="none" points="17,443.6719,21,447.6719,17,451.6719,13,447.6719" style="stroke: #B38D22; stroke-width: 1.0;"/><text fill="#000000" font-family="sans-serif" font-size="11" lengthAdjust="spacingAndGlyphs" textLength="235" x="26" y="451.8823">lod1MultiSurface : gml:MultiSurface [0..1]</text><polygon fill="none" points="17,456.4766,21,460.4766,17,464.4766,13,460.4766" style="stroke: #B38D22; stroke-width: 1.0;"/><text fill="#000000" font-family="sans-serif" font-size="11" lengthAdjust="spacingAndGlyphs" textLength="151" x="26" y="464.687">lod1Solid : gml:Solid [0..1]</text><polygon fill="none" points="17,469.2813,21,473.2813,17,477.2813,13,473.2813" style="stroke: #B38D22; stroke-width: 1.0;"/><text fill="#000000" font-family="sans-serif" font-size="11" lengthAdjust="spacingAndGlyphs" textLength="151" x="26" y="477.4917">lod2Solid : gml:Solid [0..1]</text><polygon fill="none" points="17,482.0859,21,486.0859,17,490.0859,13,486.0859" style="stroke: #B38D22; stroke-width: 1.0;"/><text fill="#000000" font-family="sans-serif" font-size="11" lengthAdjust="spacingAndGlyphs" textLength="151" x="26" y="490.2964">lod3Solid : gml:Solid [0..1]</text><polygon fill="none" points="17,494.8906,21,498.8906,17,502.8906,13,498.8906" style="stroke: #B38D22; stroke-width: 1.0;"/><text fill="#000000" font-family="sans-serif" font-size="11" lengthAdjust="spacingAndGlyphs" textLength="151" x="26" y="503.1011">lod4Solid : gml:Solid [0..1]</text><polygon fill="none" points="17,507.6953,21,511.6953,17,515.6953,13,511.6953" style="stroke: #B38D22; stroke-width: 1.0;"/><text fill="#000000" font-family="sans-serif" font-size="11" lengthAdjust="spacingAndGlyphs" textLength="248" x="26" y="515.9058">boundedBy : BoundedByWaterSurface [0..*]</text><polygon fill="none" points="17,520.5,21,524.5,17,528.5,13,524.5" style="stroke: #B38D22; stroke-width: 1.0;"/><text fill="#000000" font-family="sans-serif" font-size="11" lengthAdjust="spacingAndGlyphs" textLength="273" x="26" y="528.7104">: _GenericApplicationPropertyOfWaterBody [0..*]</text><line style="stroke: #A80036; stroke-width: 1.5;" x1="7" x2="304" y1="535.3047" y2="535.3047"/><!--MD5=[5af9b011cbc0fbaa84f83fd6e544fc09]
class AbstractWaterBoundarySurface--><rect fill="#FEFECE" filter="url(#f1fxmugk9gnz99)" height="105.1563" id="AbstractWaterBoundarySurface" style="stroke: #A80036; stroke-width: 1.5;" width="369" x="599" y="157.9063"/><ellipse cx="680.25" cy="176.875" fill="#A9DCDF" rx="11" ry="11" style="stroke: #A80036; stroke-width: 1.0;"/><path d="M680.3594,172.2188 L679.2031,177.2969 L681.5313,177.2969 L680.3594,172.2188 Z M678.875,169.9844 L681.8594,169.9844 L685.2188,182.375 L682.7656,182.375 L682,179.3125 L678.7188,179.3125 L677.9688,182.375 L675.5313,182.375 L678.875,169.9844 Z "/><text fill="#000000" font-family="sans-serif" font-size="12" font-style="italic" lengthAdjust="spacingAndGlyphs" textLength="74" x="762.75" y="174.0449">«DataType»</text><text fill="#000000" font-family="sans-serif" font-size="12" font-style="italic" lengthAdjust="spacingAndGlyphs" textLength="198" x="700.75" y="188.0137">AbstractWaterBoundarySurface</text><line style="stroke: #A80036; stroke-width: 1.5;" x1="600" x2="967" y1="195.8438" y2="195.8438"/><polygon fill="none" points="610,201.8438,614,205.8438,610,209.8438,606,205.8438" style="stroke: #B38D22; stroke-width: 1.0;"/><text fill="#000000" font-family="sans-serif" font-size="11" lengthAdjust="spacingAndGlyphs" textLength="183" x="619" y="210.0542">lod2Surface : gml:Surface [0..1]</text><polygon fill="none" points="610,214.6484,614,218.6484,610,222.6484,606,218.6484" style="stroke: #B38D22; stroke-width: 1.0;"/><text fill="#000000" font-family="sans-serif" font-size="11" lengthAdjust="spacingAndGlyphs" textLength="183" x="619" y="222.8589">lod3Surface : gml:Surface [0..1]</text><polygon fill="none" points="610,227.4531,614,231.4531,610,235.4531,606,231.4531" style="stroke: #B38D22; stroke-width: 1.0;"/><text fill="#000000" font-family="sans-serif" font-size="11" lengthAdjust="spacingAndGlyphs" textLength="183" x="619" y="235.6636">lod4Surface : gml:Surface [0..1]</text><polygon fill="none" points="610,240.2578,614,244.2578,610,248.2578,606,244.2578" style="stroke: #B38D22; stroke-width: 1.0;"/><text fill="#000000" font-family="sans-serif" font-size="11" lengthAdjust="spacingAndGlyphs" textLength="343" x="619" y="248.4683">: _GenericApplicationPropertyOfWaterBoundarySurface [0..*]</text><line style="stroke: #A80036; stroke-width: 1.5;" x1="600" x2="967" y1="255.0625" y2="255.0625"/><!--MD5=[9f2766f77e76047b6fc04e208162e112]
class WaterSurface--><rect fill="#FEFECE" filter="url(#f1fxmugk9gnz99)" height="79.5469" id="WaterSurface" style="stroke: #A80036; stroke-width: 1.5;" width="315" x="340" y="392.9063"/><ellipse cx="450.75" cy="411.875" fill="#ADD1B2" rx="11" ry="11" style="stroke: #A80036; stroke-width: 1.0;"/><path d="M453.7188,417.5156 Q453.1406,417.8125 452.5,417.9531 Q451.8594,418.1094 451.1563,418.1094 Q448.6563,418.1094 447.3281,416.4688 Q446.0156,414.8125 446.0156,411.6875 Q446.0156,408.5625 447.3281,406.9063 Q448.6563,405.25 451.1563,405.25 Q451.8594,405.25 452.5,405.4063 Q453.1563,405.5625 453.7188,405.8594 L453.7188,408.5781 Q453.0938,408 452.5,407.7344 Q451.9063,407.4531 451.2813,407.4531 Q449.9375,407.4531 449.25,408.5313 Q448.5625,409.5938 448.5625,411.6875 Q448.5625,413.7813 449.25,414.8594 Q449.9375,415.9219 451.2813,415.9219 Q451.9063,415.9219 452.5,415.6563 Q453.0938,415.375 453.7188,414.7969 L453.7188,417.5156 Z "/><text fill="#000000" font-family="sans-serif" font-size="12" font-style="italic" lengthAdjust="spacingAndGlyphs" textLength="74" x="476.75" y="409.0449">«DataType»</text><text fill="#000000" font-family="sans-serif" font-size="12" lengthAdjust="spacingAndGlyphs" textLength="85" x="471.25" y="423.0137">WaterSurface</text><line style="stroke: #A80036; stroke-width: 1.5;" x1="341" x2="654" y1="430.8438" y2="430.8438"/><polygon fill="none" points="351,436.8438,355,440.8438,351,444.8438,347,440.8438" style="stroke: #B38D22; stroke-width: 1.0;"/><text fill="#000000" font-family="sans-serif" font-size="11" lengthAdjust="spacingAndGlyphs" textLength="161" x="360" y="445.0542">waterLevel : gml:Code [0..1]</text><polygon fill="none" points="351,449.6484,355,453.6484,351,457.6484,347,453.6484" style="stroke: #B38D22; stroke-width: 1.0;"/><text fill="#000000" font-family="sans-serif" font-size="11" lengthAdjust="spacingAndGlyphs" textLength="289" x="360" y="457.8589">: _GenericApplicationPropertyOfWaterSurface [0..*]</text><line style="stroke: #A80036; stroke-width: 1.5;" x1="341" x2="654" y1="464.4531" y2="464.4531"/><!--MD5=[cf17564c48d41b852b0227cbaf445612]
class WaterGroundSurface--><rect fill="#FEFECE" filter="url(#f1fxmugk9gnz99)" height="66.7422" id="WaterGroundSurface" style="stroke: #A80036; stroke-width: 1.5;" width="357" x="690" y="399.4063"/><ellipse cx="798.75" cy="418.375" fill="#ADD1B2" rx="11" ry="11" style="stroke: #A80036; stroke-width: 1.0;"/><path d="M801.7188,424.0156 Q801.1406,424.3125 800.5,424.4531 Q799.8594,424.6094 799.1563,424.6094 Q796.6563,424.6094 795.3281,422.9688 Q794.0156,421.3125 794.0156,418.1875 Q794.0156,415.0625 795.3281,413.4063 Q796.6563,411.75 799.1563,411.75 Q799.8594,411.75 800.5,411.9063 Q801.1563,412.0625 801.7188,412.3594 L801.7188,415.0781 Q801.0938,414.5 800.5,414.2344 Q799.9063,413.9531 799.2813,413.9531 Q797.9375,413.9531 797.25,415.0313 Q796.5625,416.0938 796.5625,418.1875 Q796.5625,420.2813 797.25,421.3594 Q797.9375,422.4219 799.2813,422.4219 Q799.9063,422.4219 800.5,422.1563 Q801.0938,421.875 801.7188,421.2969 L801.7188,424.0156 Z "/><text fill="#000000" font-family="sans-serif" font-size="12" font-style="italic" lengthAdjust="spacingAndGlyphs" textLength="74" x="847.75" y="415.5449">«DataType»</text><text fill="#000000" font-family="sans-serif" font-size="12" lengthAdjust="spacingAndGlyphs" textLength="131" x="819.25" y="429.5137">WaterGroundSurface</text><line style="stroke: #A80036; stroke-width: 1.5;" x1="691" x2="1046" y1="437.3438" y2="437.3438"/><polygon fill="none" points="701,443.3438,705,447.3438,701,451.3438,697,447.3438" style="stroke: #B38D22; stroke-width: 1.0;"/><text fill="#000000" font-family="sans-serif" font-size="11" lengthAdjust="spacingAndGlyphs" textLength="331" x="710" y="451.5542">: _GenericApplicationPropertyOfWaterGroundSurface [0..*]</text><line style="stroke: #A80036; stroke-width: 1.5;" x1="691" x2="1046" y1="458.1484" y2="458.1484"/><!--MD5=[ebdc4e6c21439d41d9bbec83b1e305d0]
class WaterClosureSurface--><rect fill="#FEFECE" filter="url(#f1fxmugk9gnz99)" height="66.7422" id="WaterClosureSurface" style="stroke: #A80036; stroke-width: 1.5;" width="359" x="1082" y="399.4063"/><ellipse cx="1191.25" cy="418.375" fill="#ADD1B2" rx="11" ry="11" style="stroke: #A80036; stroke-width: 1.0;"/><path d="M1194.2188,424.0156 Q1193.6406,424.3125 1193,424.4531 Q1192.3594,424.6094 1191.6563,424.6094 Q1189.1563,424.6094 1187.8281,422.9688 Q1186.5156,421.3125 1186.5156,418.1875 Q1186.5156,415.0625 1187.8281,413.4063 Q1189.1563,411.75 1191.6563,411.75 Q1192.3594,411.75 1193,411.9063 Q1193.6563,412.0625 1194.2188,412.3594 L1194.2188,415.0781 Q1193.5938,414.5 1193,414.2344 Q1192.4063,413.9531 1191.7813,413.9531 Q1190.4375,413.9531 1189.75,415.0313 Q1189.0625,416.0938 1189.0625,418.1875 Q1189.0625,420.2813 1189.75,421.3594 Q1190.4375,422.4219 1191.7813,422.4219 Q1192.4063,422.4219 1193,422.1563 Q1193.5938,421.875 1194.2188,421.2969 L1194.2188,424.0156 Z "/><text fill="#000000" font-family="sans-serif" font-size="12" font-style="italic" lengthAdjust="spacingAndGlyphs" textLength="74" x="1240.75" y="415.5449">«DataType»</text><text fill="#000000" font-family="sans-serif" font-size="12" lengthAdjust="spacingAndGlyphs" textLength="132" x="1211.75" y="429.5137">WaterClosureSurface</text><line style="stroke: #A80036; stroke-width: 1.5;" x1="1083" x2="1440" y1="437.3438" y2="437.3438"/><polygon fill="none" points="1093,443.3438,1097,447.3438,1093,451.3438,1089,447.3438" style="stroke: #B38D22; stroke-width: 1.0;"/><text fill="#000000" font-family="sans-serif" font-size="11" lengthAdjust="spacingAndGlyphs" textLength="333" x="1102" y="451.5542">: _GenericApplicationPropertyOfWaterClosureSurface [0..*]</text><line style="stroke: #A80036; stroke-width: 1.5;" x1="1083" x2="1440" y1="458.1484" y2="458.1484"/><!--MD5=[1d07d5fc665c4950227cd7e52aae3906]
class core:AbstractCityObject--><rect fill="#FEFECE" filter="url(#f1fxmugk9gnz99)" height="48" id="core:AbstractCityObject" style="stroke: #A80036; stroke-width: 1.5;" width="178" x="422.5" y="49.9063"/><ellipse cx="437.5" cy="65.9063" fill="#A9DCDF" rx="11" ry="11" style="stroke: #A80036; stroke-width: 1.0;"/><path d="M437.6094,61.25 L436.4531,66.3281 L438.7813,66.3281 L437.6094,61.25 Z M436.125,59.0156 L439.1094,59.0156 L442.4688,71.4063 L440.0156,71.4063 L439.25,68.3438 L435.9688,68.3438 L435.2188,71.4063 L432.7813,71.4063 L436.125,59.0156 Z "/><text fill="#000000" font-family="sans-serif" font-size="12" font-style="italic" lengthAdjust="spacingAndGlyphs" textLength="146" x="451.5" y="70.0605">core:AbstractCityObject</text><line style="stroke: #A80036; stroke-width: 1.5;" x1="423.5" x2="599.5" y1="81.9063" y2="81.9063"/><line style="stroke: #A80036; stroke-width: 1.5;" x1="423.5" x2="599.5" y1="89.9063" y2="89.9063"/><!--MD5=[f42aba05e6d17cec2cf94708c79d7561]
reverse link core:AbstractCityObject to AbstractWaterObject--><path d="M446.95,106.9463 C404.36,128.0763 348.76,155.6762 305.99,176.9063 " fill="none" id="core:AbstractCityObject&lt;-AbstractWaterObject" style="stroke: #A80036; stroke-width: 1.0;"/><polygon fill="none" points="443.89,100.6463,464.91,98.0263,450.11,113.1862,443.89,100.6463" style="stroke: #A80036; stroke-width: 1.0;"/><!--MD5=[613c718d14758474aa801af03aa5ef1f]
reverse link AbstractWaterObject to WaterBody--><path d="M220.69,262.8063 C213.76,280.7663 205.7,301.6763 197.66,322.5463 " fill="none" id="AbstractWaterObject&lt;-WaterBody" style="stroke: #A80036; stroke-width: 1.0;"/><polygon fill="none" points="214.23,260.0863,227.96,243.9463,227.3,265.1163,214.23,260.0863" style="stroke: #A80036; stroke-width: 1.0;"/><!--MD5=[3951f98939b41c3994b7700075f58244]
reverse link core:AbstractCityObject to AbstractWaterBoundarySurface--><path d="M576.45,107.0263 C607.22,122.2362 644.72,140.7863 679.31,157.8863 " fill="none" id="core:AbstractCityObject&lt;-AbstractWaterBoundarySurface" style="stroke: #A80036; stroke-width: 1.0;"/><polygon fill="none" points="573.08,113.1662,558.26,98.0263,579.29,100.6162,573.08,113.1662" style="stroke: #A80036; stroke-width: 1.0;"/><!--MD5=[6e859ef024b2d375e2c691ed77d2386e]
reverse link AbstractWaterBoundarySurface to WaterSurface--><path d="M700.59,275.3263 C651.43,313.2263 590.68,360.0662 548.5,392.5863 " fill="none" id="AbstractWaterBoundarySurface&lt;-WaterSurface" style="stroke: #A80036; stroke-width: 1.0;"/><polygon fill="none" points="696.33,269.7763,716.45,263.1063,704.88,280.8563,696.33,269.7763" style="stroke: #A80036; stroke-width: 1.0;"/><!--MD5=[98b91d3c921a6f07935f117fb67ad4dd]
reverse link AbstractWaterBoundarySurface to WaterGroundSurface--><path d="M810.71,281.9963 C825.89,321.3763 844.08,368.5563 855.94,399.3262 " fill="none" id="AbstractWaterBoundarySurface&lt;-WaterGroundSurface" style="stroke: #A80036; stroke-width: 1.0;"/><polygon fill="none" points="804.09,284.2863,803.43,263.1063,817.15,279.2463,804.09,284.2863" style="stroke: #A80036; stroke-width: 1.0;"/><!--MD5=[427af8983f729e857ea34162b9f93e9c]
reverse link AbstractWaterBoundarySurface to WaterClosureSurface--><path d="M942.26,270.3063 C982.57,286.3763 1025.5,304.4663 1064.5,322.9063 C1113.8,346.2063 1167.87,376.4763 1206.87,399.2063 " fill="none" id="AbstractWaterBoundarySurface&lt;-WaterClosureSurface" style="stroke: #A80036; stroke-width: 1.0;"/><polygon fill="none" points="939.67,276.8163,923.64,262.9563,944.81,263.7963,939.67,276.8163" style="stroke: #A80036; stroke-width: 1.0;"/><!--MD5=[8e0c9350735e958bbf25fc5a28667f6d]
@startuml
title
  CityGML - 2.0 - Waterbody - Only XSD based
  http://www.opengis.net/citygml/waterbody/2.0
end title

abstract class "AbstractWaterObject" <<DataType>> {
  #  : _GenericApplicationPropertyOfWaterObject [0..*]
}
class "WaterBody" <<DataType>> {
  # class : gml:Code [0..1]
  # function : gml:Code [0..*]
  # usage : gml:Code [0..*]
  # lod0MultiCurve : gml:MultiCurve [0..1]
  # lod0MultiSurface : gml:MultiSurface [0..1]
  # lod1MultiCurve : gml:MultiCurve [0..1]
  # lod1MultiSurface : gml:MultiSurface [0..1]
  # lod1Solid : gml:Solid [0..1]
  # lod2Solid : gml:Solid [0..1]
  # lod3Solid : gml:Solid [0..1]
  # lod4Solid : gml:Solid [0..1]
  # boundedBy : BoundedByWaterSurface [0..*]
  #  : _GenericApplicationPropertyOfWaterBody [0..*]
}
class "BoundedByWaterSurfaceProperty" $property {
  #  : _WaterBoundarySurface
}
abstract class "AbstractWaterBoundarySurface" <<DataType>> {
  # lod2Surface : gml:Surface [0..1]
  # lod3Surface : gml:Surface [0..1]
  # lod4Surface : gml:Surface [0..1]
  #  : _GenericApplicationPropertyOfWaterBoundarySurface [0..*]
}
class "WaterSurface" <<DataType>> {
  # waterLevel : gml:Code [0..1]
  #  : _GenericApplicationPropertyOfWaterSurface [0..*]
}
class "WaterGroundSurface" <<DataType>> {
  #  : _GenericApplicationPropertyOfWaterGroundSurface [0..*]
}
class "WaterClosureSurface" <<DataType>> {
  #  : _GenericApplicationPropertyOfWaterClosureSurface [0..*]
}

abstract class "core:AbstractCityObject"

"core:AbstractCityObject" <|- - "AbstractWaterObject"
"AbstractWaterObject" <|- - "WaterBody"
"core:AbstractCityObject" <|- - "AbstractWaterBoundarySurface"
"AbstractWaterBoundarySurface" <|- - "WaterSurface"
"AbstractWaterBoundarySurface" <|- - "WaterGroundSurface"
"AbstractWaterBoundarySurface" <|- - "WaterClosureSurface"

remove $property


@enduml

PlantUML version 1.2020.02(Sun Mar 01 11:22:07 CET 2020)
(GPL source distribution)
Java Runtime: OpenJDK Runtime Environment
JVM: OpenJDK 64-Bit Server VM
Java Version: 21.0.11+10-1-24.04.2-Ubuntu
Operating System: Linux
Default Encoding: UTF-8
Language: en
Country: US
--></g></svg>