<?xml version="1.0" encoding="UTF-8" standalone="no"?><svg xmlns="http://www.w3.org/2000/svg" xmlns:xlink="http://www.w3.org/1999/xlink" contentScriptType="application/ecmascript" contentStyleType="text/css" height="932px" preserveAspectRatio="none" style="width:849px;height:932px;" version="1.1" viewBox="0 0 849 932" width="849px" zoomAndPan="magnify"><defs><filter height="300%" id="f1qvuurjn5fwto" width="300%" x="-1" y="-1"><feGaussianBlur result="blurOut" stdDeviation="2.0"/><feColorMatrix in="blurOut" result="blurOut2" type="matrix" values="0 0 0 0 0 0 0 0 0 0 0 0 0 0 0 0 0 0 .4 0"/><feOffset dx="4.0" dy="4.0" in="blurOut2" result="blurOut3"/><feBlend in="SourceGraphic" in2="blurOut3" mode="normal"/></filter></defs><g><text fill="#000000" font-family="sans-serif" font-size="18" lengthAdjust="spacingAndGlyphs" textLength="387" x="237" y="16.708">Part1 - 1.0 - Land-feature - Only XSD based</text><text fill="#000000" font-family="sans-serif" font-size="18" lengthAdjust="spacingAndGlyphs" textLength="431" x="215" y="37.6611">http://www.opengis.net/infragml/landfeature/1.0</text><!--MD5=[539af563cd714664bd3af99e406bb421]
cluster lilf--><polygon fill="#FFFFFF" filter="url(#f1qvuurjn5fwto)" points="149,144.9063,173,144.9063,180,167.2031,827,167.2031,827,920.9063,149,920.9063,149,144.9063" style="stroke: #000000; stroke-width: 1.5;"/><line style="stroke: #000000; stroke-width: 1.5;" x1="149" x2="180" y1="167.2031" y2="167.2031"/><text fill="#000000" font-family="sans-serif" font-size="14" font-weight="bold" lengthAdjust="spacingAndGlyphs" textLength="18" x="153" y="159.9014">lilf</text><!--MD5=[030780ef7a5f76158b5fc83dfddd472b]
class lilf:CrossSectionArea--><rect fill="#FEFECE" filter="url(#f1qvuurjn5fwto)" height="92.3516" id="lilf:CrossSectionArea" style="stroke: #A80036; stroke-width: 1.5;" width="239" x="171.5" y="812.9063"/><ellipse cx="222.75" cy="831.875" fill="#ADD1B2" rx="11" ry="11" style="stroke: #A80036; stroke-width: 1.0;"/><path d="M225.7188,837.5156 Q225.1406,837.8125 224.5,837.9531 Q223.8594,838.1094 223.1563,838.1094 Q220.6563,838.1094 219.3281,836.4688 Q218.0156,834.8125 218.0156,831.6875 Q218.0156,828.5625 219.3281,826.9063 Q220.6563,825.25 223.1563,825.25 Q223.8594,825.25 224.5,825.4063 Q225.1563,825.5625 225.7188,825.8594 L225.7188,828.5781 Q225.0938,828 224.5,827.7344 Q223.9063,827.4531 223.2813,827.4531 Q221.9375,827.4531 221.25,828.5313 Q220.5625,829.5938 220.5625,831.6875 Q220.5625,833.7813 221.25,834.8594 Q221.9375,835.9219 223.2813,835.9219 Q223.9063,835.9219 224.5,835.6563 Q225.0938,835.375 225.7188,834.7969 L225.7188,837.5156 Z "/><text fill="#000000" font-family="sans-serif" font-size="12" font-style="italic" lengthAdjust="spacingAndGlyphs" textLength="83" x="265.75" y="829.0449">«ObjectType»</text><text fill="#000000" font-family="sans-serif" font-size="12" lengthAdjust="spacingAndGlyphs" textLength="128" x="243.25" y="843.0137">lilf:CrossSectionArea</text><line style="stroke: #A80036; stroke-width: 1.5;" x1="172.5" x2="409.5" y1="850.8438" y2="850.8438"/><polygon fill="none" points="182.5,856.8438,186.5,860.8438,182.5,864.8438,178.5,860.8438" style="stroke: #B38D22; stroke-width: 1.0;"/><text fill="#000000" font-family="sans-serif" font-size="11" lengthAdjust="spacingAndGlyphs" textLength="143" x="191.5" y="865.0542">material : xs:string [0..1]</text><polygon fill="none" points="182.5,869.6484,186.5,873.6484,182.5,877.6484,178.5,873.6484" style="stroke: #B38D22; stroke-width: 1.0;"/><text fill="#000000" font-family="sans-serif" font-size="11" lengthAdjust="spacingAndGlyphs" textLength="89" x="191.5" y="877.8589">area : gml:Area</text><polygon fill="none" points="182.5,882.4531,186.5,886.4531,182.5,890.4531,178.5,886.4531" style="stroke: #B38D22; stroke-width: 1.0;"/><text fill="#000000" font-family="sans-serif" font-size="11" lengthAdjust="spacingAndGlyphs" textLength="213" x="191.5" y="890.6636">crossSectionPoint : anonymous [3..*]</text><line style="stroke: #A80036; stroke-width: 1.5;" x1="172.5" x2="409.5" y1="897.2578" y2="897.2578"/><!--MD5=[629e71616e89a5476ceeeeb84d8cafe8]
class lilf:LandCrossSection--><rect fill="#FEFECE" filter="url(#f1qvuurjn5fwto)" height="105.1563" id="lilf:LandCrossSection" style="stroke: #A80036; stroke-width: 1.5;" width="267" x="165.5" y="630.9063"/><ellipse cx="230.25" cy="649.875" fill="#ADD1B2" rx="11" ry="11" style="stroke: #A80036; stroke-width: 1.0;"/><path d="M233.2188,655.5156 Q232.6406,655.8125 232,655.9531 Q231.3594,656.1094 230.6563,656.1094 Q228.1563,656.1094 226.8281,654.4688 Q225.5156,652.8125 225.5156,649.6875 Q225.5156,646.5625 226.8281,644.9063 Q228.1563,643.25 230.6563,643.25 Q231.3594,643.25 232,643.4063 Q232.6563,643.5625 233.2188,643.8594 L233.2188,646.5781 Q232.5938,646 232,645.7344 Q231.4063,645.4531 230.7813,645.4531 Q229.4375,645.4531 228.75,646.5313 Q228.0625,647.5938 228.0625,649.6875 Q228.0625,651.7813 228.75,652.8594 Q229.4375,653.9219 230.7813,653.9219 Q231.4063,653.9219 232,653.6563 Q232.5938,653.375 233.2188,652.7969 L233.2188,655.5156 Z "/><text fill="#000000" font-family="sans-serif" font-size="12" font-style="italic" lengthAdjust="spacingAndGlyphs" textLength="83" x="273.75" y="647.0449">«ObjectType»</text><text fill="#000000" font-family="sans-serif" font-size="12" lengthAdjust="spacingAndGlyphs" textLength="129" x="250.75" y="661.0137">lilf:LandCrossSection</text><line style="stroke: #A80036; stroke-width: 1.5;" x1="166.5" x2="431.5" y1="668.8438" y2="668.8438"/><polygon fill="none" points="176.5,674.8438,180.5,678.8438,176.5,682.8438,172.5,678.8438" style="stroke: #B38D22; stroke-width: 1.0;"/><text fill="#000000" font-family="sans-serif" font-size="11" lengthAdjust="spacingAndGlyphs" textLength="198" x="185.5" y="683.0542">locatedAlong : gmllr:LinearElement</text><polygon fill="none" points="176.5,687.6484,180.5,691.6484,176.5,695.6484,172.5,691.6484" style="stroke: #B38D22; stroke-width: 1.0;"/><text fill="#000000" font-family="sans-serif" font-size="11" lengthAdjust="spacingAndGlyphs" textLength="236" x="185.5" y="695.8589">distanceAlong : gmllr:DistanceExpression</text><polygon fill="none" points="176.5,700.4531,180.5,704.4531,176.5,708.4531,172.5,704.4531" style="stroke: #B38D22; stroke-width: 1.0;"/><text fill="#000000" font-family="sans-serif" font-size="11" lengthAdjust="spacingAndGlyphs" textLength="241" x="185.5" y="708.6636">horizontalDisplacement : gml:Length [0..1]</text><polygon fill="none" points="176.5,713.2578,180.5,717.2578,176.5,721.2578,172.5,717.2578" style="stroke: #B38D22; stroke-width: 1.0;"/><text fill="#000000" font-family="sans-serif" font-size="11" lengthAdjust="spacingAndGlyphs" textLength="227" x="185.5" y="721.4683">verticalDisplacement : gml:Length [0..1]</text><line style="stroke: #A80036; stroke-width: 1.5;" x1="166.5" x2="431.5" y1="728.0625" y2="728.0625"/><!--MD5=[e3bfd89d9fa3726bd28196fb7dc736de]
class lilf:LandElement--><rect fill="#FEFECE" filter="url(#f1qvuurjn5fwto)" height="92.3516" id="lilf:LandElement" style="stroke: #A80036; stroke-width: 1.5;" width="193" x="270.5" y="320.9063"/><ellipse cx="313.85" cy="339.875" fill="#ADD1B2" rx="11" ry="11" style="stroke: #A80036; stroke-width: 1.0;"/><path d="M316.8188,345.5156 Q316.2406,345.8125 315.6,345.9531 Q314.9594,346.1094 314.2563,346.1094 Q311.7563,346.1094 310.4281,344.4688 Q309.1156,342.8125 309.1156,339.6875 Q309.1156,336.5625 310.4281,334.9063 Q311.7563,333.25 314.2563,333.25 Q314.9594,333.25 315.6,333.4063 Q316.2563,333.5625 316.8188,333.8594 L316.8188,336.5781 Q316.1938,336 315.6,335.7344 Q315.0063,335.4531 314.3813,335.4531 Q313.0375,335.4531 312.35,336.5313 Q311.6625,337.5938 311.6625,339.6875 Q311.6625,341.7813 312.35,342.8594 Q313.0375,343.9219 314.3813,343.9219 Q315.0063,343.9219 315.6,343.6563 Q316.1938,343.375 316.8188,342.7969 L316.8188,345.5156 Z "/><text fill="#000000" font-family="sans-serif" font-size="12" font-style="italic" lengthAdjust="spacingAndGlyphs" textLength="93" x="336.65" y="337.0449">«FeatureType»</text><text fill="#000000" font-family="sans-serif" font-size="12" lengthAdjust="spacingAndGlyphs" textLength="98" x="334.15" y="351.0137">lilf:LandElement</text><line style="stroke: #A80036; stroke-width: 1.5;" x1="271.5" x2="462.5" y1="358.8438" y2="358.8438"/><polygon fill="none" points="281.5,364.8438,285.5,368.8438,281.5,372.8438,277.5,368.8438" style="stroke: #B38D22; stroke-width: 1.0;"/><text fill="#000000" font-family="sans-serif" font-size="11" lengthAdjust="spacingAndGlyphs" textLength="135" x="290.5" y="373.0542">elementID : anonymous</text><polygon fill="none" points="281.5,377.6484,285.5,381.6484,281.5,385.6484,277.5,381.6484" style="stroke: #B38D22; stroke-width: 1.0;"/><text fill="#000000" font-family="sans-serif" font-size="11" lengthAdjust="spacingAndGlyphs" textLength="167" x="290.5" y="385.8589">elementType : gml:Reference</text><polygon fill="none" points="281.5,390.4531,285.5,394.4531,281.5,398.4531,277.5,394.4531" style="stroke: #B38D22; stroke-width: 1.0;"/><text fill="#000000" font-family="sans-serif" font-size="11" lengthAdjust="spacingAndGlyphs" textLength="143" x="290.5" y="398.6636">material : xs:string [0..1]</text><line style="stroke: #A80036; stroke-width: 1.5;" x1="271.5" x2="462.5" y1="405.2578" y2="405.2578"/><!--MD5=[4a5e1e20cc7d3b2badf4bf3999db20c8]
class lilf:LandFeature--><rect fill="#FEFECE" filter="url(#f1qvuurjn5fwto)" height="79.5469" id="lilf:LandFeature" style="stroke: #A80036; stroke-width: 1.5;" width="216" x="476" y="179.9063"/><ellipse cx="531.75" cy="198.875" fill="#ADD1B2" rx="11" ry="11" style="stroke: #A80036; stroke-width: 1.0;"/><path d="M534.7188,204.5156 Q534.1406,204.8125 533.5,204.9531 Q532.8594,205.1094 532.1563,205.1094 Q529.6563,205.1094 528.3281,203.4688 Q527.0156,201.8125 527.0156,198.6875 Q527.0156,195.5625 528.3281,193.9063 Q529.6563,192.25 532.1563,192.25 Q532.8594,192.25 533.5,192.4063 Q534.1563,192.5625 534.7188,192.8594 L534.7188,195.5781 Q534.0938,195 533.5,194.7344 Q532.9063,194.4531 532.2813,194.4531 Q530.9375,194.4531 530.25,195.5313 Q529.5625,196.5938 529.5625,198.6875 Q529.5625,200.7813 530.25,201.8594 Q530.9375,202.9219 532.2813,202.9219 Q532.9063,202.9219 533.5,202.6563 Q534.0938,202.375 534.7188,201.7969 L534.7188,204.5156 Z "/><text fill="#000000" font-family="sans-serif" font-size="12" font-style="italic" lengthAdjust="spacingAndGlyphs" textLength="93" x="553.75" y="196.0449">«FeatureType»</text><text fill="#000000" font-family="sans-serif" font-size="12" lengthAdjust="spacingAndGlyphs" textLength="96" x="552.25" y="210.0137">lilf:LandFeature</text><line style="stroke: #A80036; stroke-width: 1.5;" x1="477" x2="691" y1="217.8438" y2="217.8438"/><polygon fill="none" points="487,223.8438,491,227.8438,487,231.8438,483,227.8438" style="stroke: #B38D22; stroke-width: 1.0;"/><text fill="#000000" font-family="sans-serif" font-size="11" lengthAdjust="spacingAndGlyphs" textLength="190" x="496" y="232.0542">landFeatureID : anonymous [0..1]</text><polygon fill="none" points="487,236.6484,491,240.6484,487,244.6484,483,240.6484" style="stroke: #B38D22; stroke-width: 1.0;"/><text fill="#000000" font-family="sans-serif" font-size="11" lengthAdjust="spacingAndGlyphs" textLength="81" x="496" y="244.8589">state : li:State</text><line style="stroke: #A80036; stroke-width: 1.5;" x1="477" x2="691" y1="251.4531" y2="251.4531"/><!--MD5=[14fad09fd4fcfe79f62a9f96cd89474f]
class lilf:LandLayer--><rect fill="#FEFECE" filter="url(#f1qvuurjn5fwto)" height="66.7422" id="lilf:LandLayer" style="stroke: #A80036; stroke-width: 1.5;" width="170" x="499" y="333.4063"/><ellipse cx="536.05" cy="352.375" fill="#ADD1B2" rx="11" ry="11" style="stroke: #A80036; stroke-width: 1.0;"/><path d="M539.0188,358.0156 Q538.4406,358.3125 537.8,358.4531 Q537.1594,358.6094 536.4563,358.6094 Q533.9563,358.6094 532.6281,356.9688 Q531.3156,355.3125 531.3156,352.1875 Q531.3156,349.0625 532.6281,347.4063 Q533.9563,345.75 536.4563,345.75 Q537.1594,345.75 537.8,345.9063 Q538.4563,346.0625 539.0188,346.3594 L539.0188,349.0781 Q538.3938,348.5 537.8,348.2344 Q537.2063,347.9531 536.5813,347.9531 Q535.2375,347.9531 534.55,349.0313 Q533.8625,350.0938 533.8625,352.1875 Q533.8625,354.2813 534.55,355.3594 Q535.2375,356.4219 536.5813,356.4219 Q537.2063,356.4219 537.8,356.1563 Q538.3938,355.875 539.0188,355.2969 L539.0188,358.0156 Z "/><text fill="#000000" font-family="sans-serif" font-size="12" font-style="italic" lengthAdjust="spacingAndGlyphs" textLength="93" x="552.95" y="349.5449">«FeatureType»</text><text fill="#000000" font-family="sans-serif" font-size="12" lengthAdjust="spacingAndGlyphs" textLength="80" x="559.45" y="363.5137">lilf:LandLayer</text><line style="stroke: #A80036; stroke-width: 1.5;" x1="500" x2="668" y1="371.3438" y2="371.3438"/><polygon fill="none" points="510,377.3438,514,381.3438,510,385.3438,506,381.3438" style="stroke: #B38D22; stroke-width: 1.0;"/><text fill="#000000" font-family="sans-serif" font-size="11" lengthAdjust="spacingAndGlyphs" textLength="144" x="519" y="385.5542">landLayerID : anonymous</text><line style="stroke: #A80036; stroke-width: 1.5;" x1="500" x2="668" y1="392.1484" y2="392.1484"/><!--MD5=[e32c964ee7663465a62e066ff32336bc]
class lilf:LandSurface--><rect fill="#FEFECE" filter="url(#f1qvuurjn5fwto)" height="92.3516" id="lilf:LandSurface" style="stroke: #A80036; stroke-width: 1.5;" width="197" x="607.5" y="637.4063"/><ellipse cx="654.25" cy="656.375" fill="#ADD1B2" rx="11" ry="11" style="stroke: #A80036; stroke-width: 1.0;"/><path d="M657.2188,662.0156 Q656.6406,662.3125 656,662.4531 Q655.3594,662.6094 654.6563,662.6094 Q652.1563,662.6094 650.8281,660.9688 Q649.5156,659.3125 649.5156,656.1875 Q649.5156,653.0625 650.8281,651.4063 Q652.1563,649.75 654.6563,649.75 Q655.3594,649.75 656,649.9063 Q656.6563,650.0625 657.2188,650.3594 L657.2188,653.0781 Q656.5938,652.5 656,652.2344 Q655.4063,651.9531 654.7813,651.9531 Q653.4375,651.9531 652.75,653.0313 Q652.0625,654.0938 652.0625,656.1875 Q652.0625,658.2813 652.75,659.3594 Q653.4375,660.4219 654.7813,660.4219 Q655.4063,660.4219 656,660.1563 Q656.5938,659.875 657.2188,659.2969 L657.2188,662.0156 Z "/><text fill="#000000" font-family="sans-serif" font-size="12" font-style="italic" lengthAdjust="spacingAndGlyphs" textLength="93" x="675.75" y="653.5449">«FeatureType»</text><text fill="#000000" font-family="sans-serif" font-size="12" lengthAdjust="spacingAndGlyphs" textLength="95" x="674.75" y="667.5137">lilf:LandSurface</text><line style="stroke: #A80036; stroke-width: 1.5;" x1="608.5" x2="803.5" y1="675.3438" y2="675.3438"/><polygon fill="none" points="618.5,681.3438,622.5,685.3438,618.5,689.3438,614.5,685.3438" style="stroke: #B38D22; stroke-width: 1.0;"/><text fill="#000000" font-family="sans-serif" font-size="11" lengthAdjust="spacingAndGlyphs" textLength="157" x="627.5" y="689.5542">landSurfaceID : anonymous</text><text fill="#000000" font-family="sans-serif" font-size="11" lengthAdjust="spacingAndGlyphs" textLength="171" x="627.5" y="702.3589">spatialRepresentation : lilf:TIN</text><polygon fill="none" points="618.5,706.9531,622.5,710.9531,618.5,714.9531,614.5,710.9531" style="stroke: #B38D22; stroke-width: 1.0;"/><text fill="#000000" font-family="sans-serif" font-size="11" lengthAdjust="spacingAndGlyphs" textLength="143" x="627.5" y="715.1636">material : xs:string [0..1]</text><line style="stroke: #A80036; stroke-width: 1.5;" x1="608.5" x2="803.5" y1="721.7578" y2="721.7578"/><!--MD5=[95bde034a62e7fe674e57ffddc048fbd]
class lilf:LinearLayer--><rect fill="#FEFECE" filter="url(#f1qvuurjn5fwto)" height="53.9375" id="lilf:LinearLayer" style="stroke: #A80036; stroke-width: 1.5;" width="121" x="165.5" y="486.9063"/><ellipse cx="180.5" cy="505.875" fill="#ADD1B2" rx="11" ry="11" style="stroke: #A80036; stroke-width: 1.0;"/><path d="M183.4688,511.5156 Q182.8906,511.8125 182.25,511.9531 Q181.6094,512.1094 180.9063,512.1094 Q178.4063,512.1094 177.0781,510.4688 Q175.7656,508.8125 175.7656,505.6875 Q175.7656,502.5625 177.0781,500.9063 Q178.4063,499.25 180.9063,499.25 Q181.6094,499.25 182.25,499.4063 Q182.9063,499.5625 183.4688,499.8594 L183.4688,502.5781 Q182.8438,502 182.25,501.7344 Q181.6563,501.4531 181.0313,501.4531 Q179.6875,501.4531 179,502.5313 Q178.3125,503.5938 178.3125,505.6875 Q178.3125,507.7813 179,508.8594 Q179.6875,509.9219 181.0313,509.9219 Q181.6563,509.9219 182.25,509.6563 Q182.8438,509.375 183.4688,508.7969 L183.4688,511.5156 Z "/><text fill="#000000" font-family="sans-serif" font-size="12" font-style="italic" lengthAdjust="spacingAndGlyphs" textLength="93" x="192.5" y="503.0449">«FeatureType»</text><text fill="#000000" font-family="sans-serif" font-size="12" lengthAdjust="spacingAndGlyphs" textLength="88" x="195" y="517.0137">lilf:LinearLayer</text><line style="stroke: #A80036; stroke-width: 1.5;" x1="166.5" x2="285.5" y1="524.8438" y2="524.8438"/><line style="stroke: #A80036; stroke-width: 1.5;" x1="166.5" x2="285.5" y1="532.8438" y2="532.8438"/><!--MD5=[141ed180b731b846fa248f15646dafd3]
class lilf:SolidLayer--><rect fill="#FEFECE" filter="url(#f1qvuurjn5fwto)" height="79.5469" id="lilf:SolidLayer" style="stroke: #A80036; stroke-width: 1.5;" width="249" x="321.5" y="473.9063"/><ellipse cx="397.25" cy="492.875" fill="#ADD1B2" rx="11" ry="11" style="stroke: #A80036; stroke-width: 1.0;"/><path d="M400.2188,498.5156 Q399.6406,498.8125 399,498.9531 Q398.3594,499.1094 397.6563,499.1094 Q395.1563,499.1094 393.8281,497.4688 Q392.5156,495.8125 392.5156,492.6875 Q392.5156,489.5625 393.8281,487.9063 Q395.1563,486.25 397.6563,486.25 Q398.3594,486.25 399,486.4063 Q399.6563,486.5625 400.2188,486.8594 L400.2188,489.5781 Q399.5938,489 399,488.7344 Q398.4063,488.4531 397.7813,488.4531 Q396.4375,488.4531 395.75,489.5313 Q395.0625,490.5938 395.0625,492.6875 Q395.0625,494.7813 395.75,495.8594 Q396.4375,496.9219 397.7813,496.9219 Q398.4063,496.9219 399,496.6563 Q399.5938,496.375 400.2188,495.7969 L400.2188,498.5156 Z "/><text fill="#000000" font-family="sans-serif" font-size="12" font-style="italic" lengthAdjust="spacingAndGlyphs" textLength="93" x="415.75" y="490.0449">«FeatureType»</text><text fill="#000000" font-family="sans-serif" font-size="12" lengthAdjust="spacingAndGlyphs" textLength="80" x="422.25" y="504.0137">lilf:SolidLayer</text><line style="stroke: #A80036; stroke-width: 1.5;" x1="322.5" x2="569.5" y1="511.8438" y2="511.8438"/><polygon fill="none" points="332.5,517.8438,336.5,521.8438,332.5,525.8438,328.5,521.8438" style="stroke: #B38D22; stroke-width: 1.0;"/><text fill="#000000" font-family="sans-serif" font-size="11" lengthAdjust="spacingAndGlyphs" textLength="223" x="341.5" y="526.0542">spatialRepresentation : li:PolyfaceMesh</text><polygon fill="none" points="332.5,530.6484,336.5,534.6484,332.5,538.6484,328.5,534.6484" style="stroke: #B38D22; stroke-width: 1.0;"/><text fill="#000000" font-family="sans-serif" font-size="11" lengthAdjust="spacingAndGlyphs" textLength="143" x="341.5" y="538.8589">material : xs:string [0..1]</text><line style="stroke: #A80036; stroke-width: 1.5;" x1="322.5" x2="569.5" y1="545.4531" y2="545.4531"/><!--MD5=[35d335103a143707eb0b5ae7e59deef2]
class lilf:SurfacesLayer--><rect fill="#FEFECE" filter="url(#f1qvuurjn5fwto)" height="79.5469" id="lilf:SurfacesLayer" style="stroke: #A80036; stroke-width: 1.5;" width="169" x="605.5" y="473.9063"/><ellipse cx="634.9" cy="492.875" fill="#ADD1B2" rx="11" ry="11" style="stroke: #A80036; stroke-width: 1.0;"/><path d="M637.8688,498.5156 Q637.2906,498.8125 636.65,498.9531 Q636.0094,499.1094 635.3063,499.1094 Q632.8063,499.1094 631.4781,497.4688 Q630.1656,495.8125 630.1656,492.6875 Q630.1656,489.5625 631.4781,487.9063 Q632.8063,486.25 635.3063,486.25 Q636.0094,486.25 636.65,486.4063 Q637.3063,486.5625 637.8688,486.8594 L637.8688,489.5781 Q637.2438,489 636.65,488.7344 Q636.0563,488.4531 635.4313,488.4531 Q634.0875,488.4531 633.4,489.5313 Q632.7125,490.5938 632.7125,492.6875 Q632.7125,494.7813 633.4,495.8594 Q634.0875,496.9219 635.4313,496.9219 Q636.0563,496.9219 636.65,496.6563 Q637.2438,496.375 637.8688,495.7969 L637.8688,498.5156 Z "/><text fill="#000000" font-family="sans-serif" font-size="12" font-style="italic" lengthAdjust="spacingAndGlyphs" textLength="93" x="658.1" y="490.0449">«FeatureType»</text><text fill="#000000" font-family="sans-serif" font-size="12" lengthAdjust="spacingAndGlyphs" textLength="105" x="652.1" y="504.0137">lilf:SurfacesLayer</text><line style="stroke: #A80036; stroke-width: 1.5;" x1="606.5" x2="773.5" y1="511.8438" y2="511.8438"/><polygon fill="none" points="616.5,517.8438,620.5,521.8438,616.5,525.8438,612.5,521.8438" style="stroke: #B38D22; stroke-width: 1.0;"/><text fill="#000000" font-family="sans-serif" font-size="11" lengthAdjust="spacingAndGlyphs" textLength="116" x="625.5" y="526.0542">extent : gml:Polygon</text><polygon fill="none" points="616.5,530.6484,620.5,534.6484,616.5,538.6484,612.5,534.6484" style="stroke: #B38D22; stroke-width: 1.0;"/><text fill="#000000" font-family="sans-serif" font-size="11" lengthAdjust="spacingAndGlyphs" textLength="143" x="625.5" y="538.8589">material : xs:string [0..1]</text><line style="stroke: #A80036; stroke-width: 1.5;" x1="606.5" x2="773.5" y1="545.4531" y2="545.4531"/><!--MD5=[a806a878fb0d13cf0439d5b984533d2e]
class li:AbstractData--><rect fill="#FEFECE" filter="url(#f1qvuurjn5fwto)" height="48" id="li:AbstractData" style="stroke: #A80036; stroke-width: 1.5;" width="124" x="6" y="489.9063"/><ellipse cx="21" cy="505.9063" fill="#A9DCDF" rx="11" ry="11" style="stroke: #A80036; stroke-width: 1.0;"/><path d="M21.1094,501.25 L19.9531,506.3281 L22.2813,506.3281 L21.1094,501.25 Z M19.625,499.0156 L22.6094,499.0156 L25.9688,511.4063 L23.5156,511.4063 L22.75,508.3438 L19.4688,508.3438 L18.7188,511.4063 L16.2813,511.4063 L19.625,499.0156 Z "/><text fill="#000000" font-family="sans-serif" font-size="12" font-style="italic" lengthAdjust="spacingAndGlyphs" textLength="92" x="35" y="510.0605">li:AbstractData</text><line style="stroke: #A80036; stroke-width: 1.5;" x1="7" x2="129" y1="521.9063" y2="521.9063"/><line style="stroke: #A80036; stroke-width: 1.5;" x1="7" x2="129" y1="529.9063" y2="529.9063"/><!--MD5=[bf8eb764b68d0f4d36e20a658c0b31c1]
class li:Feature--><rect fill="#FEFECE" filter="url(#f1qvuurjn5fwto)" height="48" id="li:Feature" style="stroke: #A80036; stroke-width: 1.5;" width="91" x="538.5" y="49.9063"/><ellipse cx="553.5" cy="65.9063" fill="#ADD1B2" rx="11" ry="11" style="stroke: #A80036; stroke-width: 1.0;"/><path d="M556.4688,71.5469 Q555.8906,71.8438 555.25,71.9844 Q554.6094,72.1406 553.9063,72.1406 Q551.4063,72.1406 550.0781,70.5 Q548.7656,68.8438 548.7656,65.7188 Q548.7656,62.5938 550.0781,60.9375 Q551.4063,59.2813 553.9063,59.2813 Q554.6094,59.2813 555.25,59.4375 Q555.9063,59.5938 556.4688,59.8906 L556.4688,62.6094 Q555.8438,62.0313 555.25,61.7656 Q554.6563,61.4844 554.0313,61.4844 Q552.6875,61.4844 552,62.5625 Q551.3125,63.625 551.3125,65.7188 Q551.3125,67.8125 552,68.8906 Q552.6875,69.9531 554.0313,69.9531 Q554.6563,69.9531 555.25,69.6875 Q555.8438,69.4063 556.4688,68.8281 L556.4688,71.5469 Z "/><text fill="#000000" font-family="sans-serif" font-size="12" lengthAdjust="spacingAndGlyphs" textLength="59" x="567.5" y="70.0605">li:Feature</text><line style="stroke: #A80036; stroke-width: 1.5;" x1="539.5" x2="628.5" y1="81.9063" y2="81.9063"/><line style="stroke: #A80036; stroke-width: 1.5;" x1="539.5" x2="628.5" y1="89.9063" y2="89.9063"/><!--MD5=[0e0921050354f5235bcc36597e76519e]
reverse link li:AbstractData to lilf:CrossSectionArea--><path d="M76.55,557.6263 C87.44,604.5163 109.6,680.4762 148,735.9063 C168.35,765.2763 197.45,791.8463 224.1,812.6363 " fill="none" id="li:AbstractData&lt;-lilf:CrossSectionArea" style="stroke: #A80036; stroke-width: 1.0;"/><polygon fill="none" points="69.7,559.0563,72.27,538.0263,83.38,556.0663,69.7,559.0563" style="stroke: #A80036; stroke-width: 1.0;"/><!--MD5=[c34a9c0d65259f25280e7ab24b5b030a]
reverse link li:AbstractData to lilf:LandCrossSection--><path d="M116.37,549.9862 C148.63,573.3763 191.59,604.5263 227.74,630.7362 " fill="none" id="li:AbstractData&lt;-lilf:LandCrossSection" style="stroke: #A80036; stroke-width: 1.0;"/><polygon fill="none" points="112.2,555.6063,100.12,538.1963,120.42,544.2663,112.2,555.6063" style="stroke: #A80036; stroke-width: 1.0;"/><!--MD5=[a642336c2ce3515da9e461bf66a4d953]
reverse link lilf:LandFeature to lilf:LandElement--><path d="M508.86,271.1163 C484.65,287.2963 457.99,305.1063 434.38,320.8863 " fill="none" id="lilf:LandFeature&lt;-lilf:LandElement" style="stroke: #A80036; stroke-width: 1.0;"/><polygon fill="none" points="505.04,265.2463,525.56,259.9562,512.82,276.8863,505.04,265.2463" style="stroke: #A80036; stroke-width: 1.0;"/><!--MD5=[409da2ea13d8c1df81cb4d5d320ddf29]
reverse link li:Feature to lilf:LandFeature--><path d="M584,118.3062 C584,137.8663 584,160.7963 584,179.8162 " fill="none" id="li:Feature&lt;-lilf:LandFeature" style="stroke: #A80036; stroke-width: 1.0;"/><polygon fill="none" points="577,118.0462,584,98.0462,591,118.0462,577,118.0462" style="stroke: #A80036; stroke-width: 1.0;"/><!--MD5=[e7a13853166217cf440f8822d84735a5]
reverse link lilf:LandFeature to lilf:LandLayer--><path d="M584,280.1563 C584,298.2062 584,317.3763 584,333.0163 " fill="none" id="lilf:LandFeature&lt;-lilf:LandLayer" style="stroke: #A80036; stroke-width: 1.0;"/><polygon fill="none" points="577,280.1463,584,260.1463,591,280.1463,577,280.1463" style="stroke: #A80036; stroke-width: 1.0;"/><!--MD5=[f17d529c782f769cc9dba852bb4c8a1f]
reverse link lilf:LandFeature to lilf:LandSurface--><path d="M645.76,273.5762 C695.65,320.3963 762.26,393.6962 792,473.9063 C811.71,527.0663 828.07,549.5763 804,600.9063 C797.61,614.5263 787.7,626.6663 776.59,637.1463 " fill="none" id="lilf:LandFeature&lt;-lilf:LandSurface" style="stroke: #A80036; stroke-width: 1.0;"/><polygon fill="none" points="640.88,278.5963,630.88,259.9163,650.35,268.2763,640.88,278.5963" style="stroke: #A80036; stroke-width: 1.0;"/><!--MD5=[0cffa8b8f691f75e0cb4b6ee857a2238]
reverse link lilf:LandLayer to lilf:LinearLayer--><path d="M492.78,408.2162 C488.81,409.8262 484.87,411.3963 481,412.9063 C403.48,443.1463 380.71,441.6763 304,473.9063 C294.79,477.7763 285.14,482.2463 275.9,486.7463 " fill="none" id="lilf:LandLayer&lt;-lilf:LinearLayer" style="stroke: #A80036; stroke-width: 1.0;"/><polygon fill="none" points="490.28,401.6763,511.43,400.4763,495.65,414.6063,490.28,401.6763" style="stroke: #A80036; stroke-width: 1.0;"/><!--MD5=[cbfa4f7e679652514ad02e85879f5d63]
reverse link lilf:LandLayer to lilf:SolidLayer--><path d="M539.19,414.9963 C521.1,433.9963 500.48,455.6563 483.25,473.7763 " fill="none" id="lilf:LandLayer&lt;-lilf:SolidLayer" style="stroke: #A80036; stroke-width: 1.0;"/><polygon fill="none" points="534.17,410.1063,553.03,400.4462,544.31,419.7563,534.17,410.1063" style="stroke: #A80036; stroke-width: 1.0;"/><!--MD5=[4d067c8e61207fa491630e5d3d200bd0]
reverse link lilf:LandLayer to lilf:SurfacesLayer--><path d="M619.67,416.6962 C633.25,435.2763 648.54,456.1963 661.39,473.7763 " fill="none" id="lilf:LandLayer&lt;-lilf:SurfacesLayer" style="stroke: #A80036; stroke-width: 1.0;"/><polygon fill="none" points="613.94,420.7263,607.79,400.4462,625.24,412.4662,613.94,420.7263" style="stroke: #A80036; stroke-width: 1.0;"/><!--MD5=[a370c46b690f4ac9aff7b262588a463d]
link lilf:LandCrossSection to lilf:CrossSectionArea--><path d="M296.62,735.9963 C295.58,758.6563 294.35,785.1663 293.32,807.6663 " fill="none" id="lilf:LandCrossSection-&gt;lilf:CrossSectionArea" style="stroke: #A80036; stroke-width: 1.0; stroke-dasharray: 7.0,7.0;"/><polygon fill="#A80036" points="293.08,812.6963,297.488,803.8889,293.309,807.7015,289.4964,803.5225,293.08,812.6963" style="stroke: #A80036; stroke-width: 1.0;"/><text fill="#000000" font-family="sans-serif" font-size="13" lengthAdjust="spacingAndGlyphs" textLength="112" x="296" y="778.9731">crossSectionArea</text><text fill="#000000" font-family="sans-serif" font-size="13" lengthAdjust="spacingAndGlyphs" textLength="23" x="268.6964" y="801.8584">0..*</text><!--MD5=[3e23cf049d47e57a464f568221313a01]
link lilf:LinearLayer to lilf:LandCrossSection--><path d="M237.41,541.0763 C247.26,563.6963 261.85,597.1663 274.35,625.8563 " fill="none" id="lilf:LinearLayer-&gt;lilf:LandCrossSection" style="stroke: #A80036; stroke-width: 1.0; stroke-dasharray: 7.0,7.0;"/><polygon fill="#A80036" points="276.5,630.7863,276.5685,620.9376,274.5012,626.2032,269.2356,624.1358,276.5,630.7863" style="stroke: #A80036; stroke-width: 1.0;"/><text fill="#000000" font-family="sans-serif" font-size="13" lengthAdjust="spacingAndGlyphs" textLength="111" x="263" y="596.9731">landCrossSection</text><text fill="#000000" font-family="sans-serif" font-size="13" lengthAdjust="spacingAndGlyphs" textLength="23" x="248.9313" y="619.7729">2..*</text><!--MD5=[5ea3307078ad227a2c82ac288aeaf7ee]
reverse link lilf:SurfacesLayer to lilf:LandSurface--><path d="M597.08,563.2763 C587.63,574.3363 583.8,586.9862 591,600.9063 C598.25,614.9263 609.14,627.0563 621.39,637.3563 " fill="none" id="lilf:SurfacesLayer&lt;-lilf:LandSurface" style="stroke: #A80036; stroke-width: 1.0;"/><polygon fill="#FFFFFF" points="606.7,553.9663,599.6068,555.2649,598.0774,562.312,605.1706,561.0133,606.7,553.9663" style="stroke: #A80036; stroke-width: 1.0;"/><text fill="#000000" font-family="sans-serif" font-size="13" lengthAdjust="spacingAndGlyphs" textLength="70" x="592" y="596.9731">topSurface</text><text fill="#000000" font-family="sans-serif" font-size="13" lengthAdjust="spacingAndGlyphs" textLength="8" x="599.8216" y="626.2066">1</text><!--MD5=[5ea3307078ad227a2c82ac288aeaf7ee]
reverse link lilf:SurfacesLayer to lilf:LandSurface--><path d="M695,567.2563 C697.14,589.6763 699.62,615.5963 701.68,637.1563 " fill="none" id="lilf:SurfacesLayer&lt;-lilf:LandSurface-1" style="stroke: #A80036; stroke-width: 1.0;"/><polygon fill="#FFFFFF" points="693.75,554.1763,690.3418,560.5311,694.897,566.1213,698.3052,559.7664,693.75,554.1763" style="stroke: #A80036; stroke-width: 1.0;"/><text fill="#000000" font-family="sans-serif" font-size="13" lengthAdjust="spacingAndGlyphs" textLength="96" x="699" y="596.9731">bottomSurface</text><text fill="#000000" font-family="sans-serif" font-size="13" lengthAdjust="spacingAndGlyphs" textLength="24" x="675.283" y="626.3125">0..1</text><!--MD5=[34d9d52c709d10e975234a6b4b7d6867]
@startuml
title
  Part1 - 1.0 - Land-feature - Only XSD based
  http://www.opengis.net/infragml/landfeature/1.0
end title

package lilf {
class "lilf:CrossSectionArea" <<ObjectType>> {
  # material : xs:string [0..1]
  # area : gml:Area
  # crossSectionPoint : anonymous [3..*]
}
class "lilf:CrossSectionAreaProperty" $property {
  CrossSectionArea : lilf:CrossSectionArea
}
class "lilf:LandCrossSection" <<ObjectType>> {
  # locatedAlong : gmllr:LinearElement
  # distanceAlong : gmllr:DistanceExpression
  # horizontalDisplacement : gml:Length [0..1]
  # verticalDisplacement : gml:Length [0..1]
}
class "lilf:LandCrossSectionProperty" $property {
  LandCrossSection : lilf:LandCrossSection
}
class "lilf:LandElement" <<FeatureType>> {
  # elementID : anonymous
  # elementType : gml:Reference
  # material : xs:string [0..1]
}
class "lilf:LandElementProperty" $property {
  LandElement : lilf:LandElement
}
class "lilf:LandFeature" <<FeatureType>> {
  # landFeatureID : anonymous [0..1]
  # state : li:State
}
class "lilf:LandFeatureProperty" $property {
  LandFeature : lilf:LandFeature
}
class "lilf:LandLayer" <<FeatureType>> {
  # landLayerID : anonymous
}
class "lilf:LandLayerProperty" $property {
  LandLayer : lilf:LandLayer
}
class "lilf:LandSurface" <<FeatureType>> {
  # landSurfaceID : anonymous
  spatialRepresentation : lilf:TIN
  # material : xs:string [0..1]
}
class "lilf:LandSurfaceProperty" $property {
  LandSurface : lilf:LandSurface
}
class "lilf:LinearLayer" <<FeatureType>>
class "lilf:LinearLayerProperty" $property {
  LinearLayer : lilf:LinearLayer
}
class "lilf:SolidLayer" <<FeatureType>> {
  # spatialRepresentation : li:PolyfaceMesh
  # material : xs:string [0..1]
}
class "lilf:SolidLayerProperty" $property {
  SolidLayer : lilf:SolidLayer
}
class "lilf:SurfacesLayer" <<FeatureType>> {
  # extent : gml:Polygon
  # material : xs:string [0..1]
}
class "lilf:SurfacesLayerProperty" $property {
  SurfacesLayer : lilf:SurfacesLayer
}
class "lilf:TINProperty" $property {
  # TIN : tin:TIN
}
}

abstract class "li:AbstractData"
class "li:Feature"

"li:AbstractData" <|- - "lilf:CrossSectionArea"
"li:AbstractData" <|- - "lilf:LandCrossSection"
"lilf:LandFeature" <|- - "lilf:LandElement"
"li:Feature" <|- - "lilf:LandFeature"
"lilf:LandFeature" <|- - "lilf:LandLayer"
"lilf:LandFeature" <|- - "lilf:LandSurface"
"lilf:LandLayer" <|- - "lilf:LinearLayer"
"lilf:LandLayer" <|- - "lilf:SolidLayer"
"lilf:LandLayer" <|- - "lilf:SurfacesLayer"

"lilf:LandCrossSection" ..> "0..*" "lilf:CrossSectionArea" : crossSectionArea
"lilf:LinearLayer" ..> "2..*" "lilf:LandCrossSection" : landCrossSection
"lilf:SurfacesLayer" o- - "1" "lilf:LandSurface" : topSurface
"lilf:SurfacesLayer" o- - "0..1" "lilf:LandSurface" : bottomSurface

remove $property


@enduml

PlantUML version 1.2020.02(Sun Mar 01 11:22:07 CET 2020)
(GPL source distribution)
Java Runtime: OpenJDK Runtime Environment
JVM: OpenJDK 64-Bit Server VM
Java Version: 21.0.11+10-1-24.04.2-Ubuntu
Operating System: Linux
Default Encoding: UTF-8
Language: en
Country: US
--></g></svg>