<?xml version="1.0" encoding="UTF-8" standalone="no"?><svg xmlns="http://www.w3.org/2000/svg" xmlns:xlink="http://www.w3.org/1999/xlink" contentScriptType="application/ecmascript" contentStyleType="text/css" height="501px" preserveAspectRatio="none" style="width:2560px;height:501px;" version="1.1" viewBox="0 0 2560 501" width="2560px" zoomAndPan="magnify"><defs><filter height="300%" id="fybtqxmp13q30" width="300%" x="-1" y="-1"><feGaussianBlur result="blurOut" stdDeviation="2.0"/><feColorMatrix in="blurOut" result="blurOut2" type="matrix" values="0 0 0 0 0 0 0 0 0 0 0 0 0 0 0 0 0 0 .4 0"/><feOffset dx="4.0" dy="4.0" in="blurOut2" result="blurOut3"/><feBlend in="SourceGraphic" in2="blurOut3" mode="normal"/></filter></defs><g><text fill="#000000" font-family="sans-serif" font-size="18" lengthAdjust="spacingAndGlyphs" textLength="453" x="1057" y="16.708">IndoorGML - 1.0 - Indoorgmlnavi - Only XSD based</text><text fill="#000000" font-family="sans-serif" font-size="18" lengthAdjust="spacingAndGlyphs" textLength="439" x="1064" y="37.6611">http://www.opengis.net/indoorgml/1.0/navigation</text><!--MD5=[e13857ce5ab3eb54daec3fef07f6a064]
class NavigableSpace--><rect fill="#FEFECE" filter="url(#fybtqxmp13q30)" height="92.3516" id="NavigableSpace" style="stroke: #A80036; stroke-width: 1.5;" width="137" x="80" y="164.4063"/><ellipse cx="97.25" cy="183.375" fill="#ADD1B2" rx="11" ry="11" style="stroke: #A80036; stroke-width: 1.0;"/><path d="M100.2188,189.0156 Q99.6406,189.3125 99,189.4531 Q98.3594,189.6094 97.6563,189.6094 Q95.1563,189.6094 93.8281,187.9688 Q92.5156,186.3125 92.5156,183.1875 Q92.5156,180.0625 93.8281,178.4063 Q95.1563,176.75 97.6563,176.75 Q98.3594,176.75 99,176.9063 Q99.6563,177.0625 100.2188,177.3594 L100.2188,180.0781 Q99.5938,179.5 99,179.2344 Q98.4063,178.9531 97.7813,178.9531 Q96.4375,178.9531 95.75,180.0313 Q95.0625,181.0938 95.0625,183.1875 Q95.0625,185.2813 95.75,186.3594 Q96.4375,187.4219 97.7813,187.4219 Q98.4063,187.4219 99,187.1563 Q99.5938,186.875 100.2188,186.2969 L100.2188,189.0156 Z "/><text fill="#000000" font-family="sans-serif" font-size="12" font-style="italic" lengthAdjust="spacingAndGlyphs" textLength="74" x="124.75" y="180.5449">«DataType»</text><text fill="#000000" font-family="sans-serif" font-size="12" lengthAdjust="spacingAndGlyphs" textLength="100" x="111.75" y="194.5137">NavigableSpace</text><line style="stroke: #A80036; stroke-width: 1.5;" x1="81" x2="216" y1="202.3438" y2="202.3438"/><polygon fill="none" points="91,208.3438,95,212.3438,91,216.3438,87,212.3438" style="stroke: #B38D22; stroke-width: 1.0;"/><text fill="#000000" font-family="sans-serif" font-size="11" lengthAdjust="spacingAndGlyphs" textLength="96" x="100" y="216.5542">class : gml:Code</text><polygon fill="none" points="91,221.1484,95,225.1484,91,229.1484,87,225.1484" style="stroke: #B38D22; stroke-width: 1.0;"/><text fill="#000000" font-family="sans-serif" font-size="11" lengthAdjust="spacingAndGlyphs" textLength="111" x="100" y="229.3589">function : gml:Code</text><polygon fill="none" points="91,233.9531,95,237.9531,91,241.9531,87,237.9531" style="stroke: #B38D22; stroke-width: 1.0;"/><text fill="#000000" font-family="sans-serif" font-size="11" lengthAdjust="spacingAndGlyphs" textLength="101" x="100" y="242.1636">usage : gml:Code</text><line style="stroke: #A80036; stroke-width: 1.5;" x1="81" x2="216" y1="248.7578" y2="248.7578"/><!--MD5=[b026be53ae02b27c042fbebbaa56369d]
class GeneralSpace--><rect fill="#FEFECE" filter="url(#fybtqxmp13q30)" height="53.9375" id="GeneralSpace" style="stroke: #A80036; stroke-width: 1.5;" width="120" x="10.5" y="322.9063"/><ellipse cx="25.5" cy="341.875" fill="#ADD1B2" rx="11" ry="11" style="stroke: #A80036; stroke-width: 1.0;"/><path d="M28.4688,347.5156 Q27.8906,347.8125 27.25,347.9531 Q26.6094,348.1094 25.9063,348.1094 Q23.4063,348.1094 22.0781,346.4688 Q20.7656,344.8125 20.7656,341.6875 Q20.7656,338.5625 22.0781,336.9063 Q23.4063,335.25 25.9063,335.25 Q26.6094,335.25 27.25,335.4063 Q27.9063,335.5625 28.4688,335.8594 L28.4688,338.5781 Q27.8438,338 27.25,337.7344 Q26.6563,337.4531 26.0313,337.4531 Q24.6875,337.4531 24,338.5313 Q23.3125,339.5938 23.3125,341.6875 Q23.3125,343.7813 24,344.8594 Q24.6875,345.9219 26.0313,345.9219 Q26.6563,345.9219 27.25,345.6563 Q27.8438,345.375 28.4688,344.7969 L28.4688,347.5156 Z "/><text fill="#000000" font-family="sans-serif" font-size="12" font-style="italic" lengthAdjust="spacingAndGlyphs" textLength="74" x="46.5" y="339.0449">«DataType»</text><text fill="#000000" font-family="sans-serif" font-size="12" lengthAdjust="spacingAndGlyphs" textLength="88" x="39.5" y="353.0137">GeneralSpace</text><line style="stroke: #A80036; stroke-width: 1.5;" x1="11.5" x2="129.5" y1="360.8438" y2="360.8438"/><line style="stroke: #A80036; stroke-width: 1.5;" x1="11.5" x2="129.5" y1="368.8438" y2="368.8438"/><!--MD5=[a754cc5a2fd96acba07b072aec470ffc]
class TransferSpace--><rect fill="#FEFECE" filter="url(#fybtqxmp13q30)" height="53.9375" id="TransferSpace" style="stroke: #A80036; stroke-width: 1.5;" width="123" x="166" y="322.9063"/><ellipse cx="181" cy="341.875" fill="#ADD1B2" rx="11" ry="11" style="stroke: #A80036; stroke-width: 1.0;"/><path d="M183.9688,347.5156 Q183.3906,347.8125 182.75,347.9531 Q182.1094,348.1094 181.4063,348.1094 Q178.9063,348.1094 177.5781,346.4688 Q176.2656,344.8125 176.2656,341.6875 Q176.2656,338.5625 177.5781,336.9063 Q178.9063,335.25 181.4063,335.25 Q182.1094,335.25 182.75,335.4063 Q183.4063,335.5625 183.9688,335.8594 L183.9688,338.5781 Q183.3438,338 182.75,337.7344 Q182.1563,337.4531 181.5313,337.4531 Q180.1875,337.4531 179.5,338.5313 Q178.8125,339.5938 178.8125,341.6875 Q178.8125,343.7813 179.5,344.8594 Q180.1875,345.9219 181.5313,345.9219 Q182.1563,345.9219 182.75,345.6563 Q183.3438,345.375 183.9688,344.7969 L183.9688,347.5156 Z "/><text fill="#000000" font-family="sans-serif" font-size="12" font-style="italic" lengthAdjust="spacingAndGlyphs" textLength="74" x="203.5" y="339.0449">«DataType»</text><text fill="#000000" font-family="sans-serif" font-size="12" lengthAdjust="spacingAndGlyphs" textLength="91" x="195" y="353.0137">TransferSpace</text><line style="stroke: #A80036; stroke-width: 1.5;" x1="167" x2="288" y1="360.8438" y2="360.8438"/><line style="stroke: #A80036; stroke-width: 1.5;" x1="167" x2="288" y1="368.8438" y2="368.8438"/><!--MD5=[2bce305f99d33ef79769bdc3a2fa4dce]
class AnchorSpace--><rect fill="#FEFECE" filter="url(#fybtqxmp13q30)" height="53.9375" id="AnchorSpace" style="stroke: #A80036; stroke-width: 1.5;" width="115" x="6" y="436.9063"/><ellipse cx="21" cy="455.875" fill="#ADD1B2" rx="11" ry="11" style="stroke: #A80036; stroke-width: 1.0;"/><path d="M23.9688,461.5156 Q23.3906,461.8125 22.75,461.9531 Q22.1094,462.1094 21.4063,462.1094 Q18.9063,462.1094 17.5781,460.4688 Q16.2656,458.8125 16.2656,455.6875 Q16.2656,452.5625 17.5781,450.9063 Q18.9063,449.25 21.4063,449.25 Q22.1094,449.25 22.75,449.4063 Q23.4063,449.5625 23.9688,449.8594 L23.9688,452.5781 Q23.3438,452 22.75,451.7344 Q22.1563,451.4531 21.5313,451.4531 Q20.1875,451.4531 19.5,452.5313 Q18.8125,453.5938 18.8125,455.6875 Q18.8125,457.7813 19.5,458.8594 Q20.1875,459.9219 21.5313,459.9219 Q22.1563,459.9219 22.75,459.6563 Q23.3438,459.375 23.9688,458.7969 L23.9688,461.5156 Z "/><text fill="#000000" font-family="sans-serif" font-size="12" font-style="italic" lengthAdjust="spacingAndGlyphs" textLength="74" x="39.5" y="453.0449">«DataType»</text><text fill="#000000" font-family="sans-serif" font-size="12" lengthAdjust="spacingAndGlyphs" textLength="83" x="35" y="467.0137">AnchorSpace</text><line style="stroke: #A80036; stroke-width: 1.5;" x1="7" x2="120" y1="474.8438" y2="474.8438"/><line style="stroke: #A80036; stroke-width: 1.5;" x1="7" x2="120" y1="482.8438" y2="482.8438"/><!--MD5=[1ada9b8559d5d1c7cab3b360e3e0424c]
class ConnectionSpace--><rect fill="#FEFECE" filter="url(#fybtqxmp13q30)" height="53.9375" id="ConnectionSpace" style="stroke: #A80036; stroke-width: 1.5;" width="142" x="156.5" y="436.9063"/><ellipse cx="171.5" cy="455.875" fill="#ADD1B2" rx="11" ry="11" style="stroke: #A80036; stroke-width: 1.0;"/><path d="M174.4688,461.5156 Q173.8906,461.8125 173.25,461.9531 Q172.6094,462.1094 171.9063,462.1094 Q169.4063,462.1094 168.0781,460.4688 Q166.7656,458.8125 166.7656,455.6875 Q166.7656,452.5625 168.0781,450.9063 Q169.4063,449.25 171.9063,449.25 Q172.6094,449.25 173.25,449.4063 Q173.9063,449.5625 174.4688,449.8594 L174.4688,452.5781 Q173.8438,452 173.25,451.7344 Q172.6563,451.4531 172.0313,451.4531 Q170.6875,451.4531 170,452.5313 Q169.3125,453.5938 169.3125,455.6875 Q169.3125,457.7813 170,458.8594 Q170.6875,459.9219 172.0313,459.9219 Q172.6563,459.9219 173.25,459.6563 Q173.8438,459.375 174.4688,458.7969 L174.4688,461.5156 Z "/><text fill="#000000" font-family="sans-serif" font-size="12" font-style="italic" lengthAdjust="spacingAndGlyphs" textLength="74" x="203.5" y="453.0449">«DataType»</text><text fill="#000000" font-family="sans-serif" font-size="12" lengthAdjust="spacingAndGlyphs" textLength="110" x="185.5" y="467.0137">ConnectionSpace</text><line style="stroke: #A80036; stroke-width: 1.5;" x1="157.5" x2="297.5" y1="474.8438" y2="474.8438"/><line style="stroke: #A80036; stroke-width: 1.5;" x1="157.5" x2="297.5" y1="482.8438" y2="482.8438"/><!--MD5=[bb1a6f7ee164e8abbbb310e2a32d46d7]
class TransitionSpace--><rect fill="#FEFECE" filter="url(#fybtqxmp13q30)" height="53.9375" id="TransitionSpace" style="stroke: #A80036; stroke-width: 1.5;" width="133" x="334" y="436.9063"/><ellipse cx="349" cy="455.875" fill="#ADD1B2" rx="11" ry="11" style="stroke: #A80036; stroke-width: 1.0;"/><path d="M351.9688,461.5156 Q351.3906,461.8125 350.75,461.9531 Q350.1094,462.1094 349.4063,462.1094 Q346.9063,462.1094 345.5781,460.4688 Q344.2656,458.8125 344.2656,455.6875 Q344.2656,452.5625 345.5781,450.9063 Q346.9063,449.25 349.4063,449.25 Q350.1094,449.25 350.75,449.4063 Q351.4063,449.5625 351.9688,449.8594 L351.9688,452.5781 Q351.3438,452 350.75,451.7344 Q350.1563,451.4531 349.5313,451.4531 Q348.1875,451.4531 347.5,452.5313 Q346.8125,453.5938 346.8125,455.6875 Q346.8125,457.7813 347.5,458.8594 Q348.1875,459.9219 349.5313,459.9219 Q350.1563,459.9219 350.75,459.6563 Q351.3438,459.375 351.9688,458.7969 L351.9688,461.5156 Z "/><text fill="#000000" font-family="sans-serif" font-size="12" font-style="italic" lengthAdjust="spacingAndGlyphs" textLength="74" x="376.5" y="453.0449">«DataType»</text><text fill="#000000" font-family="sans-serif" font-size="12" lengthAdjust="spacingAndGlyphs" textLength="101" x="363" y="467.0137">TransitionSpace</text><line style="stroke: #A80036; stroke-width: 1.5;" x1="335" x2="466" y1="474.8438" y2="474.8438"/><line style="stroke: #A80036; stroke-width: 1.5;" x1="335" x2="466" y1="482.8438" y2="482.8438"/><!--MD5=[02326ceaec055b2b4f0060522f261ade]
class NavigableBoundary--><rect fill="#FEFECE" filter="url(#fybtqxmp13q30)" height="53.9375" id="NavigableBoundary" style="stroke: #A80036; stroke-width: 1.5;" width="152" x="599.5" y="183.4063"/><ellipse cx="614.5" cy="202.375" fill="#ADD1B2" rx="11" ry="11" style="stroke: #A80036; stroke-width: 1.0;"/><path d="M617.4688,208.0156 Q616.8906,208.3125 616.25,208.4531 Q615.6094,208.6094 614.9063,208.6094 Q612.4063,208.6094 611.0781,206.9688 Q609.7656,205.3125 609.7656,202.1875 Q609.7656,199.0625 611.0781,197.4063 Q612.4063,195.75 614.9063,195.75 Q615.6094,195.75 616.25,195.9063 Q616.9063,196.0625 617.4688,196.3594 L617.4688,199.0781 Q616.8438,198.5 616.25,198.2344 Q615.6563,197.9531 615.0313,197.9531 Q613.6875,197.9531 613,199.0313 Q612.3125,200.0938 612.3125,202.1875 Q612.3125,204.2813 613,205.3594 Q613.6875,206.4219 615.0313,206.4219 Q615.6563,206.4219 616.25,206.1563 Q616.8438,205.875 617.4688,205.2969 L617.4688,208.0156 Z "/><text fill="#000000" font-family="sans-serif" font-size="12" font-style="italic" lengthAdjust="spacingAndGlyphs" textLength="74" x="651.5" y="199.5449">«DataType»</text><text fill="#000000" font-family="sans-serif" font-size="12" lengthAdjust="spacingAndGlyphs" textLength="120" x="628.5" y="213.5137">NavigableBoundary</text><line style="stroke: #A80036; stroke-width: 1.5;" x1="600.5" x2="750.5" y1="221.3438" y2="221.3438"/><line style="stroke: #A80036; stroke-width: 1.5;" x1="600.5" x2="750.5" y1="229.3438" y2="229.3438"/><!--MD5=[9923907252e1b96315fa18750c1469ba]
class TransferBoundary--><rect fill="#FEFECE" filter="url(#fybtqxmp13q30)" height="53.9375" id="TransferBoundary" style="stroke: #A80036; stroke-width: 1.5;" width="143" x="604" y="322.9063"/><ellipse cx="619" cy="341.875" fill="#ADD1B2" rx="11" ry="11" style="stroke: #A80036; stroke-width: 1.0;"/><path d="M621.9688,347.5156 Q621.3906,347.8125 620.75,347.9531 Q620.1094,348.1094 619.4063,348.1094 Q616.9063,348.1094 615.5781,346.4688 Q614.2656,344.8125 614.2656,341.6875 Q614.2656,338.5625 615.5781,336.9063 Q616.9063,335.25 619.4063,335.25 Q620.1094,335.25 620.75,335.4063 Q621.4063,335.5625 621.9688,335.8594 L621.9688,338.5781 Q621.3438,338 620.75,337.7344 Q620.1563,337.4531 619.5313,337.4531 Q618.1875,337.4531 617.5,338.5313 Q616.8125,339.5938 616.8125,341.6875 Q616.8125,343.7813 617.5,344.8594 Q618.1875,345.9219 619.5313,345.9219 Q620.1563,345.9219 620.75,345.6563 Q621.3438,345.375 621.9688,344.7969 L621.9688,347.5156 Z "/><text fill="#000000" font-family="sans-serif" font-size="12" font-style="italic" lengthAdjust="spacingAndGlyphs" textLength="74" x="651.5" y="339.0449">«DataType»</text><text fill="#000000" font-family="sans-serif" font-size="12" lengthAdjust="spacingAndGlyphs" textLength="111" x="633" y="353.0137">TransferBoundary</text><line style="stroke: #A80036; stroke-width: 1.5;" x1="605" x2="746" y1="360.8438" y2="360.8438"/><line style="stroke: #A80036; stroke-width: 1.5;" x1="605" x2="746" y1="368.8438" y2="368.8438"/><!--MD5=[8f3c599e651c73f68df815f43099ae4b]
class ConnectionBoundary--><rect fill="#FEFECE" filter="url(#fybtqxmp13q30)" height="53.9375" id="ConnectionBoundary" style="stroke: #A80036; stroke-width: 1.5;" width="162" x="502.5" y="436.9063"/><ellipse cx="517.5" cy="455.875" fill="#ADD1B2" rx="11" ry="11" style="stroke: #A80036; stroke-width: 1.0;"/><path d="M520.4688,461.5156 Q519.8906,461.8125 519.25,461.9531 Q518.6094,462.1094 517.9063,462.1094 Q515.4063,462.1094 514.0781,460.4688 Q512.7656,458.8125 512.7656,455.6875 Q512.7656,452.5625 514.0781,450.9063 Q515.4063,449.25 517.9063,449.25 Q518.6094,449.25 519.25,449.4063 Q519.9063,449.5625 520.4688,449.8594 L520.4688,452.5781 Q519.8438,452 519.25,451.7344 Q518.6563,451.4531 518.0313,451.4531 Q516.6875,451.4531 516,452.5313 Q515.3125,453.5938 515.3125,455.6875 Q515.3125,457.7813 516,458.8594 Q516.6875,459.9219 518.0313,459.9219 Q518.6563,459.9219 519.25,459.6563 Q519.8438,459.375 520.4688,458.7969 L520.4688,461.5156 Z "/><text fill="#000000" font-family="sans-serif" font-size="12" font-style="italic" lengthAdjust="spacingAndGlyphs" textLength="74" x="559.5" y="453.0449">«DataType»</text><text fill="#000000" font-family="sans-serif" font-size="12" lengthAdjust="spacingAndGlyphs" textLength="130" x="531.5" y="467.0137">ConnectionBoundary</text><line style="stroke: #A80036; stroke-width: 1.5;" x1="503.5" x2="663.5" y1="474.8438" y2="474.8438"/><line style="stroke: #A80036; stroke-width: 1.5;" x1="503.5" x2="663.5" y1="482.8438" y2="482.8438"/><!--MD5=[f6bf9e2a18cc7525c92a6ca582b1be11]
class AnchorBoundary--><rect fill="#FEFECE" filter="url(#fybtqxmp13q30)" height="53.9375" id="AnchorBoundary" style="stroke: #A80036; stroke-width: 1.5;" width="135" x="700" y="436.9063"/><ellipse cx="715" cy="455.875" fill="#ADD1B2" rx="11" ry="11" style="stroke: #A80036; stroke-width: 1.0;"/><path d="M717.9688,461.5156 Q717.3906,461.8125 716.75,461.9531 Q716.1094,462.1094 715.4063,462.1094 Q712.9063,462.1094 711.5781,460.4688 Q710.2656,458.8125 710.2656,455.6875 Q710.2656,452.5625 711.5781,450.9063 Q712.9063,449.25 715.4063,449.25 Q716.1094,449.25 716.75,449.4063 Q717.4063,449.5625 717.9688,449.8594 L717.9688,452.5781 Q717.3438,452 716.75,451.7344 Q716.1563,451.4531 715.5313,451.4531 Q714.1875,451.4531 713.5,452.5313 Q712.8125,453.5938 712.8125,455.6875 Q712.8125,457.7813 713.5,458.8594 Q714.1875,459.9219 715.5313,459.9219 Q716.1563,459.9219 716.75,459.6563 Q717.3438,459.375 717.9688,458.7969 L717.9688,461.5156 Z "/><text fill="#000000" font-family="sans-serif" font-size="12" font-style="italic" lengthAdjust="spacingAndGlyphs" textLength="74" x="743.5" y="453.0449">«DataType»</text><text fill="#000000" font-family="sans-serif" font-size="12" lengthAdjust="spacingAndGlyphs" textLength="103" x="729" y="467.0137">AnchorBoundary</text><line style="stroke: #A80036; stroke-width: 1.5;" x1="701" x2="834" y1="474.8438" y2="474.8438"/><line style="stroke: #A80036; stroke-width: 1.5;" x1="701" x2="834" y1="482.8438" y2="482.8438"/><!--MD5=[fc92a9f5bb5fae84dd7fa4034e6b4444]
class Route--><rect fill="#FEFECE" filter="url(#fybtqxmp13q30)" height="105.1563" id="Route" style="stroke: #A80036; stroke-width: 1.5;" width="187" x="787" y="157.9063"/><ellipse cx="831.75" cy="176.875" fill="#ADD1B2" rx="11" ry="11" style="stroke: #A80036; stroke-width: 1.0;"/><path d="M834.7188,182.5156 Q834.1406,182.8125 833.5,182.9531 Q832.8594,183.1094 832.1563,183.1094 Q829.6563,183.1094 828.3281,181.4688 Q827.0156,179.8125 827.0156,176.6875 Q827.0156,173.5625 828.3281,171.9063 Q829.6563,170.25 832.1563,170.25 Q832.8594,170.25 833.5,170.4063 Q834.1563,170.5625 834.7188,170.8594 L834.7188,173.5781 Q834.0938,173 833.5,172.7344 Q832.9063,172.4531 832.2813,172.4531 Q830.9375,172.4531 830.25,173.5313 Q829.5625,174.5938 829.5625,176.6875 Q829.5625,178.7813 830.25,179.8594 Q830.9375,180.9219 832.2813,180.9219 Q832.9063,180.9219 833.5,180.6563 Q834.0938,180.375 834.7188,179.7969 L834.7188,182.5156 Z "/><text fill="#000000" font-family="sans-serif" font-size="12" font-style="italic" lengthAdjust="spacingAndGlyphs" textLength="93" x="850.25" y="174.0449">«FeatureType»</text><text fill="#000000" font-family="sans-serif" font-size="12" lengthAdjust="spacingAndGlyphs" textLength="37" x="878.25" y="188.0137">Route</text><line style="stroke: #A80036; stroke-width: 1.5;" x1="788" x2="973" y1="195.8438" y2="195.8438"/><polygon fill="none" points="798,201.8438,802,205.8438,798,209.8438,794,205.8438" style="stroke: #B38D22; stroke-width: 1.0;"/><text fill="#000000" font-family="sans-serif" font-size="11" lengthAdjust="spacingAndGlyphs" textLength="161" x="807" y="210.0542">startRouteNode : RouteNode</text><polygon fill="none" points="798,214.6484,802,218.6484,798,222.6484,794,218.6484" style="stroke: #B38D22; stroke-width: 1.0;"/><text fill="#000000" font-family="sans-serif" font-size="11" lengthAdjust="spacingAndGlyphs" textLength="155" x="807" y="222.8589">endRouteNode : RouteNode</text><polygon fill="none" points="798,227.4531,802,231.4531,798,235.4531,794,231.4531" style="stroke: #B38D22; stroke-width: 1.0;"/><text fill="#000000" font-family="sans-serif" font-size="11" lengthAdjust="spacingAndGlyphs" textLength="146" x="807" y="235.6636">routeNodes : RouteNodes</text><polygon fill="none" points="798,240.2578,802,244.2578,798,248.2578,794,244.2578" style="stroke: #B38D22; stroke-width: 1.0;"/><text fill="#000000" font-family="sans-serif" font-size="11" lengthAdjust="spacingAndGlyphs" textLength="62" x="807" y="248.4683">path : Path</text><line style="stroke: #A80036; stroke-width: 1.5;" x1="788" x2="973" y1="255.0625" y2="255.0625"/><!--MD5=[f29be33f4317343b5bc4d7d190345cf3]
class RouteNodes--><rect fill="#FEFECE" filter="url(#fybtqxmp13q30)" height="66.7422" id="RouteNodes" style="stroke: #A80036; stroke-width: 1.5;" width="252" x="1009.5" y="176.9063"/><ellipse cx="1086.75" cy="195.875" fill="#ADD1B2" rx="11" ry="11" style="stroke: #A80036; stroke-width: 1.0;"/><path d="M1089.7188,201.5156 Q1089.1406,201.8125 1088.5,201.9531 Q1087.8594,202.1094 1087.1563,202.1094 Q1084.6563,202.1094 1083.3281,200.4688 Q1082.0156,198.8125 1082.0156,195.6875 Q1082.0156,192.5625 1083.3281,190.9063 Q1084.6563,189.25 1087.1563,189.25 Q1087.8594,189.25 1088.5,189.4063 Q1089.1563,189.5625 1089.7188,189.8594 L1089.7188,192.5781 Q1089.0938,192 1088.5,191.7344 Q1087.9063,191.4531 1087.2813,191.4531 Q1085.9375,191.4531 1085.25,192.5313 Q1084.5625,193.5938 1084.5625,195.6875 Q1084.5625,197.7813 1085.25,198.8594 Q1085.9375,199.9219 1087.2813,199.9219 Q1087.9063,199.9219 1088.5,199.6563 Q1089.0938,199.375 1089.7188,198.7969 L1089.7188,201.5156 Z "/><text fill="#000000" font-family="sans-serif" font-size="12" font-style="italic" lengthAdjust="spacingAndGlyphs" textLength="93" x="1105.25" y="193.0449">«FeatureType»</text><text fill="#000000" font-family="sans-serif" font-size="12" lengthAdjust="spacingAndGlyphs" textLength="77" x="1113.25" y="207.0137">RouteNodes</text><line style="stroke: #A80036; stroke-width: 1.5;" x1="1010.5" x2="1260.5" y1="214.8438" y2="214.8438"/><polygon fill="none" points="1020.5,220.8438,1024.5,224.8438,1020.5,228.8438,1016.5,224.8438" style="stroke: #B38D22; stroke-width: 1.0;"/><text fill="#000000" font-family="sans-serif" font-size="11" lengthAdjust="spacingAndGlyphs" textLength="226" x="1029.5" y="229.0542">nodeMember : RouteNodeMember [2..*]</text><line style="stroke: #A80036; stroke-width: 1.5;" x1="1010.5" x2="1260.5" y1="235.6484" y2="235.6484"/><!--MD5=[c7a27fedbf3517df70b797ec915d3a78]
class RouteNodeMember--><rect fill="#FEFECE" filter="url(#fybtqxmp13q30)" height="66.7422" id="RouteNodeMember" style="stroke: #A80036; stroke-width: 1.5;" width="152" x="2186.5" y="176.9063"/><ellipse cx="2201.5" cy="195.875" fill="#ADD1B2" rx="11" ry="11" style="stroke: #A80036; stroke-width: 1.0;"/><path d="M2204.4688,201.5156 Q2203.8906,201.8125 2203.25,201.9531 Q2202.6094,202.1094 2201.9063,202.1094 Q2199.4063,202.1094 2198.0781,200.4688 Q2196.7656,198.8125 2196.7656,195.6875 Q2196.7656,192.5625 2198.0781,190.9063 Q2199.4063,189.25 2201.9063,189.25 Q2202.6094,189.25 2203.25,189.4063 Q2203.9063,189.5625 2204.4688,189.8594 L2204.4688,192.5781 Q2203.8438,192 2203.25,191.7344 Q2202.6563,191.4531 2202.0313,191.4531 Q2200.6875,191.4531 2200,192.5313 Q2199.3125,193.5938 2199.3125,195.6875 Q2199.3125,197.7813 2200,198.8594 Q2200.6875,199.9219 2202.0313,199.9219 Q2202.6563,199.9219 2203.25,199.6563 Q2203.8438,199.375 2204.4688,198.7969 L2204.4688,201.5156 Z "/><text fill="#000000" font-family="sans-serif" font-size="12" font-style="italic" lengthAdjust="spacingAndGlyphs" textLength="83" x="2234" y="193.0449">«ObjectType»</text><text fill="#000000" font-family="sans-serif" font-size="12" lengthAdjust="spacingAndGlyphs" textLength="120" x="2215.5" y="207.0137">RouteNodeMember</text><line style="stroke: #A80036; stroke-width: 1.5;" x1="2187.5" x2="2337.5" y1="214.8438" y2="214.8438"/><polygon fill="none" points="2197.5,220.8438,2201.5,224.8438,2197.5,228.8438,2193.5,224.8438" style="stroke: #B38D22; stroke-width: 1.0;"/><text fill="#000000" font-family="sans-serif" font-size="11" lengthAdjust="spacingAndGlyphs" textLength="69" x="2206.5" y="229.0542">: RouteNode</text><line style="stroke: #A80036; stroke-width: 1.5;" x1="2187.5" x2="2337.5" y1="235.6484" y2="235.6484"/><!--MD5=[db94511ff73c25040c57072aa4771965]
class Path--><rect fill="#FEFECE" filter="url(#fybtqxmp13q30)" height="66.7422" id="Path" style="stroke: #A80036; stroke-width: 1.5;" width="276" x="1296.5" y="176.9063"/><ellipse cx="1385.75" cy="195.875" fill="#ADD1B2" rx="11" ry="11" style="stroke: #A80036; stroke-width: 1.0;"/><path d="M1388.7188,201.5156 Q1388.1406,201.8125 1387.5,201.9531 Q1386.8594,202.1094 1386.1563,202.1094 Q1383.6563,202.1094 1382.3281,200.4688 Q1381.0156,198.8125 1381.0156,195.6875 Q1381.0156,192.5625 1382.3281,190.9063 Q1383.6563,189.25 1386.1563,189.25 Q1386.8594,189.25 1387.5,189.4063 Q1388.1563,189.5625 1388.7188,189.8594 L1388.7188,192.5781 Q1388.0938,192 1387.5,191.7344 Q1386.9063,191.4531 1386.2813,191.4531 Q1384.9375,191.4531 1384.25,192.5313 Q1383.5625,193.5938 1383.5625,195.6875 Q1383.5625,197.7813 1384.25,198.8594 Q1384.9375,199.9219 1386.2813,199.9219 Q1386.9063,199.9219 1387.5,199.6563 Q1388.0938,199.375 1388.7188,198.7969 L1388.7188,201.5156 Z "/><text fill="#000000" font-family="sans-serif" font-size="12" font-style="italic" lengthAdjust="spacingAndGlyphs" textLength="93" x="1404.25" y="193.0449">«FeatureType»</text><text fill="#000000" font-family="sans-serif" font-size="12" lengthAdjust="spacingAndGlyphs" textLength="29" x="1436.25" y="207.0137">Path</text><line style="stroke: #A80036; stroke-width: 1.5;" x1="1297.5" x2="1571.5" y1="214.8438" y2="214.8438"/><polygon fill="none" points="1307.5,220.8438,1311.5,224.8438,1307.5,228.8438,1303.5,224.8438" style="stroke: #B38D22; stroke-width: 1.0;"/><text fill="#000000" font-family="sans-serif" font-size="11" lengthAdjust="spacingAndGlyphs" textLength="250" x="1316.5" y="229.0542">routeMember : RouteSegmentMember [0..*]</text><line style="stroke: #A80036; stroke-width: 1.5;" x1="1297.5" x2="1571.5" y1="235.6484" y2="235.6484"/><!--MD5=[d5bfb556974eac1cdd2e87292edac83f]
class RouteSegmentMember--><rect fill="#FEFECE" filter="url(#fybtqxmp13q30)" height="66.7422" id="RouteSegmentMember" style="stroke: #A80036; stroke-width: 1.5;" width="175" x="2374" y="176.9063"/><ellipse cx="2389" cy="195.875" fill="#ADD1B2" rx="11" ry="11" style="stroke: #A80036; stroke-width: 1.0;"/><path d="M2391.9688,201.5156 Q2391.3906,201.8125 2390.75,201.9531 Q2390.1094,202.1094 2389.4063,202.1094 Q2386.9063,202.1094 2385.5781,200.4688 Q2384.2656,198.8125 2384.2656,195.6875 Q2384.2656,192.5625 2385.5781,190.9063 Q2386.9063,189.25 2389.4063,189.25 Q2390.1094,189.25 2390.75,189.4063 Q2391.4063,189.5625 2391.9688,189.8594 L2391.9688,192.5781 Q2391.3438,192 2390.75,191.7344 Q2390.1563,191.4531 2389.5313,191.4531 Q2388.1875,191.4531 2387.5,192.5313 Q2386.8125,193.5938 2386.8125,195.6875 Q2386.8125,197.7813 2387.5,198.8594 Q2388.1875,199.9219 2389.5313,199.9219 Q2390.1563,199.9219 2390.75,199.6563 Q2391.3438,199.375 2391.9688,198.7969 L2391.9688,201.5156 Z "/><text fill="#000000" font-family="sans-serif" font-size="12" font-style="italic" lengthAdjust="spacingAndGlyphs" textLength="83" x="2433" y="193.0449">«ObjectType»</text><text fill="#000000" font-family="sans-serif" font-size="12" lengthAdjust="spacingAndGlyphs" textLength="143" x="2403" y="207.0137">RouteSegmentMember</text><line style="stroke: #A80036; stroke-width: 1.5;" x1="2375" x2="2548" y1="214.8438" y2="214.8438"/><polygon fill="none" points="2385,220.8438,2389,224.8438,2385,228.8438,2381,224.8438" style="stroke: #B38D22; stroke-width: 1.0;"/><text fill="#000000" font-family="sans-serif" font-size="11" lengthAdjust="spacingAndGlyphs" textLength="91" x="2394" y="229.0542">: RouteSegment</text><line style="stroke: #A80036; stroke-width: 1.5;" x1="2375" x2="2548" y1="235.6484" y2="235.6484"/><!--MD5=[0ca9c243fc4c1a6e017f0ea8c2094695]
class RouteSegment--><rect fill="#FEFECE" filter="url(#fybtqxmp13q30)" height="105.1563" id="RouteSegment" style="stroke: #A80036; stroke-width: 1.5;" width="281" x="1608" y="157.9063"/><ellipse cx="1697.75" cy="176.875" fill="#ADD1B2" rx="11" ry="11" style="stroke: #A80036; stroke-width: 1.0;"/><path d="M1700.7188,182.5156 Q1700.1406,182.8125 1699.5,182.9531 Q1698.8594,183.1094 1698.1563,183.1094 Q1695.6563,183.1094 1694.3281,181.4688 Q1693.0156,179.8125 1693.0156,176.6875 Q1693.0156,173.5625 1694.3281,171.9063 Q1695.6563,170.25 1698.1563,170.25 Q1698.8594,170.25 1699.5,170.4063 Q1700.1563,170.5625 1700.7188,170.8594 L1700.7188,173.5781 Q1700.0938,173 1699.5,172.7344 Q1698.9063,172.4531 1698.2813,172.4531 Q1696.9375,172.4531 1696.25,173.5313 Q1695.5625,174.5938 1695.5625,176.6875 Q1695.5625,178.7813 1696.25,179.8594 Q1696.9375,180.9219 1698.2813,180.9219 Q1698.9063,180.9219 1699.5,180.6563 Q1700.0938,180.375 1700.7188,179.7969 L1700.7188,182.5156 Z "/><text fill="#000000" font-family="sans-serif" font-size="12" font-style="italic" lengthAdjust="spacingAndGlyphs" textLength="93" x="1718.25" y="174.0449">«FeatureType»</text><text fill="#000000" font-family="sans-serif" font-size="12" lengthAdjust="spacingAndGlyphs" textLength="93" x="1718.25" y="188.0137">RouteSegment</text><line style="stroke: #A80036; stroke-width: 1.5;" x1="1609" x2="1888" y1="195.8438" y2="195.8438"/><polygon fill="none" points="1619,201.8438,1623,205.8438,1619,209.8438,1615,205.8438" style="stroke: #B38D22; stroke-width: 1.0;"/><text fill="#000000" font-family="sans-serif" font-size="11" lengthAdjust="spacingAndGlyphs" textLength="104" x="1628" y="210.0542">weight : xs:double</text><polygon fill="none" points="1619,214.6484,1623,218.6484,1619,222.6484,1615,218.6484" style="stroke: #B38D22; stroke-width: 1.0;"/><text fill="#000000" font-family="sans-serif" font-size="11" lengthAdjust="spacingAndGlyphs" textLength="143" x="1628" y="222.8589">connects : RouteNode [2]</text><polygon fill="none" points="1619,227.4531,1623,231.4531,1619,235.4531,1615,231.4531" style="stroke: #B38D22; stroke-width: 1.0;"/><text fill="#000000" font-family="sans-serif" font-size="11" lengthAdjust="spacingAndGlyphs" textLength="255" x="1628" y="235.6636">referencedTransition : IndoorCore:Transition</text><polygon fill="none" points="1619,240.2578,1623,244.2578,1619,248.2578,1615,244.2578" style="stroke: #B38D22; stroke-width: 1.0;"/><text fill="#000000" font-family="sans-serif" font-size="11" lengthAdjust="spacingAndGlyphs" textLength="124" x="1628" y="248.4683">geometry : gml:Curve</text><line style="stroke: #A80036; stroke-width: 1.5;" x1="1609" x2="1888" y1="255.0625" y2="255.0625"/><!--MD5=[85395cf78ab818cb5d721eb0f1b22b39]
class RouteNode--><rect fill="#FEFECE" filter="url(#fybtqxmp13q30)" height="79.5469" id="RouteNode" style="stroke: #A80036; stroke-width: 1.5;" width="227" x="1924" y="170.4063"/><ellipse cx="1988.75" cy="189.375" fill="#ADD1B2" rx="11" ry="11" style="stroke: #A80036; stroke-width: 1.0;"/><path d="M1991.7188,195.0156 Q1991.1406,195.3125 1990.5,195.4531 Q1989.8594,195.6094 1989.1563,195.6094 Q1986.6563,195.6094 1985.3281,193.9688 Q1984.0156,192.3125 1984.0156,189.1875 Q1984.0156,186.0625 1985.3281,184.4063 Q1986.6563,182.75 1989.1563,182.75 Q1989.8594,182.75 1990.5,182.9063 Q1991.1563,183.0625 1991.7188,183.3594 L1991.7188,186.0781 Q1991.0938,185.5 1990.5,185.2344 Q1989.9063,184.9531 1989.2813,184.9531 Q1987.9375,184.9531 1987.25,186.0313 Q1986.5625,187.0938 1986.5625,189.1875 Q1986.5625,191.2813 1987.25,192.3594 Q1987.9375,193.4219 1989.2813,193.4219 Q1989.9063,193.4219 1990.5,193.1563 Q1991.0938,192.875 1991.7188,192.2969 L1991.7188,195.0156 Z "/><text fill="#000000" font-family="sans-serif" font-size="12" font-style="italic" lengthAdjust="spacingAndGlyphs" textLength="93" x="2007.25" y="186.5449">«FeatureType»</text><text fill="#000000" font-family="sans-serif" font-size="12" lengthAdjust="spacingAndGlyphs" textLength="70" x="2018.75" y="200.5137">RouteNode</text><line style="stroke: #A80036; stroke-width: 1.5;" x1="1925" x2="2150" y1="208.3438" y2="208.3438"/><polygon fill="none" points="1935,214.3438,1939,218.3438,1935,222.3438,1931,218.3438" style="stroke: #B38D22; stroke-width: 1.0;"/><text fill="#000000" font-family="sans-serif" font-size="11" lengthAdjust="spacingAndGlyphs" textLength="201" x="1944" y="222.5542">referencedState : IndoorCore:State</text><polygon fill="none" points="1935,227.1484,1939,231.1484,1935,235.1484,1931,231.1484" style="stroke: #B38D22; stroke-width: 1.0;"/><text fill="#000000" font-family="sans-serif" font-size="11" lengthAdjust="spacingAndGlyphs" textLength="119" x="1944" y="235.3589">geometry : gml:Point</text><line style="stroke: #A80036; stroke-width: 1.5;" x1="1925" x2="2150" y1="241.9531" y2="241.9531"/><!--MD5=[7d5d302b0390e2478be670ee8546f850]
class IndoorCore:CellSpace--><rect fill="#FEFECE" filter="url(#fybtqxmp13q30)" height="48" id="IndoorCore:CellSpace" style="stroke: #A80036; stroke-width: 1.5;" width="166" x="65.5" y="49.9063"/><ellipse cx="80.5" cy="65.9063" fill="#ADD1B2" rx="11" ry="11" style="stroke: #A80036; stroke-width: 1.0;"/><path d="M83.4688,71.5469 Q82.8906,71.8438 82.25,71.9844 Q81.6094,72.1406 80.9063,72.1406 Q78.4063,72.1406 77.0781,70.5 Q75.7656,68.8438 75.7656,65.7188 Q75.7656,62.5938 77.0781,60.9375 Q78.4063,59.2813 80.9063,59.2813 Q81.6094,59.2813 82.25,59.4375 Q82.9063,59.5938 83.4688,59.8906 L83.4688,62.6094 Q82.8438,62.0313 82.25,61.7656 Q81.6563,61.4844 81.0313,61.4844 Q79.6875,61.4844 79,62.5625 Q78.3125,63.625 78.3125,65.7188 Q78.3125,67.8125 79,68.8906 Q79.6875,69.9531 81.0313,69.9531 Q81.6563,69.9531 82.25,69.6875 Q82.8438,69.4063 83.4688,68.8281 L83.4688,71.5469 Z "/><text fill="#000000" font-family="sans-serif" font-size="12" lengthAdjust="spacingAndGlyphs" textLength="134" x="94.5" y="70.0605">IndoorCore:CellSpace</text><line style="stroke: #A80036; stroke-width: 1.5;" x1="66.5" x2="230.5" y1="81.9063" y2="81.9063"/><line style="stroke: #A80036; stroke-width: 1.5;" x1="66.5" x2="230.5" y1="89.9063" y2="89.9063"/><!--MD5=[de0d2fb303b8145d9864758c8fa8d324]
class IndoorCore:CellSpaceBoundary--><rect fill="#FEFECE" filter="url(#fybtqxmp13q30)" height="48" id="IndoorCore:CellSpaceBoundary" style="stroke: #A80036; stroke-width: 1.5;" width="225" x="563" y="49.9063"/><ellipse cx="578" cy="65.9063" fill="#ADD1B2" rx="11" ry="11" style="stroke: #A80036; stroke-width: 1.0;"/><path d="M580.9688,71.5469 Q580.3906,71.8438 579.75,71.9844 Q579.1094,72.1406 578.4063,72.1406 Q575.9063,72.1406 574.5781,70.5 Q573.2656,68.8438 573.2656,65.7188 Q573.2656,62.5938 574.5781,60.9375 Q575.9063,59.2813 578.4063,59.2813 Q579.1094,59.2813 579.75,59.4375 Q580.4063,59.5938 580.9688,59.8906 L580.9688,62.6094 Q580.3438,62.0313 579.75,61.7656 Q579.1563,61.4844 578.5313,61.4844 Q577.1875,61.4844 576.5,62.5625 Q575.8125,63.625 575.8125,65.7188 Q575.8125,67.8125 576.5,68.8906 Q577.1875,69.9531 578.5313,69.9531 Q579.1563,69.9531 579.75,69.6875 Q580.3438,69.4063 580.9688,68.8281 L580.9688,71.5469 Z "/><text fill="#000000" font-family="sans-serif" font-size="12" lengthAdjust="spacingAndGlyphs" textLength="193" x="592" y="70.0605">IndoorCore:CellSpaceBoundary</text><line style="stroke: #A80036; stroke-width: 1.5;" x1="564" x2="787" y1="81.9063" y2="81.9063"/><line style="stroke: #A80036; stroke-width: 1.5;" x1="564" x2="787" y1="89.9063" y2="89.9063"/><!--MD5=[643693b454119511939bf34e77b7f1c8]
class gml:AbstractFeature--><rect fill="#FEFECE" filter="url(#fybtqxmp13q30)" height="48" id="gml:AbstractFeature" style="stroke: #A80036; stroke-width: 1.5;" width="159" x="1355" y="49.9063"/><ellipse cx="1370" cy="65.9063" fill="#A9DCDF" rx="11" ry="11" style="stroke: #A80036; stroke-width: 1.0;"/><path d="M1370.1094,61.25 L1368.9531,66.3281 L1371.2813,66.3281 L1370.1094,61.25 Z M1368.625,59.0156 L1371.6094,59.0156 L1374.9688,71.4063 L1372.5156,71.4063 L1371.75,68.3438 L1368.4688,68.3438 L1367.7188,71.4063 L1365.2813,71.4063 L1368.625,59.0156 Z "/><text fill="#000000" font-family="sans-serif" font-size="12" font-style="italic" lengthAdjust="spacingAndGlyphs" textLength="127" x="1384" y="70.0605">gml:AbstractFeature</text><line style="stroke: #A80036; stroke-width: 1.5;" x1="1356" x2="1513" y1="81.9063" y2="81.9063"/><line style="stroke: #A80036; stroke-width: 1.5;" x1="1356" x2="1513" y1="89.9063" y2="89.9063"/><!--MD5=[d481228c4f6a1892f0a3b3abcc060e85]
class gml:AbstractFeatureMember--><rect fill="#FEFECE" filter="url(#fybtqxmp13q30)" height="48" id="gml:AbstractFeatureMember" style="stroke: #A80036; stroke-width: 1.5;" width="209" x="2257" y="49.9063"/><ellipse cx="2272" cy="65.9063" fill="#A9DCDF" rx="11" ry="11" style="stroke: #A80036; stroke-width: 1.0;"/><path d="M2272.1094,61.25 L2270.9531,66.3281 L2273.2813,66.3281 L2272.1094,61.25 Z M2270.625,59.0156 L2273.6094,59.0156 L2276.9688,71.4063 L2274.5156,71.4063 L2273.75,68.3438 L2270.4688,68.3438 L2269.7188,71.4063 L2267.2813,71.4063 L2270.625,59.0156 Z "/><text fill="#000000" font-family="sans-serif" font-size="12" font-style="italic" lengthAdjust="spacingAndGlyphs" textLength="177" x="2286" y="70.0605">gml:AbstractFeatureMember</text><line style="stroke: #A80036; stroke-width: 1.5;" x1="2258" x2="2465" y1="81.9063" y2="81.9063"/><line style="stroke: #A80036; stroke-width: 1.5;" x1="2258" x2="2465" y1="89.9063" y2="89.9063"/><!--MD5=[950ad9aa4814303d1be8800deb25f84e]
reverse link IndoorCore:CellSpace to NavigableSpace--><path d="M148.5,118.2663 C148.5,132.9862 148.5,149.4663 148.5,164.3163 " fill="none" id="IndoorCore:CellSpace&lt;-NavigableSpace" style="stroke: #A80036; stroke-width: 1.0;"/><polygon fill="none" points="141.5,118.0263,148.5,98.0263,155.5,118.0263,141.5,118.0263" style="stroke: #A80036; stroke-width: 1.0;"/><!--MD5=[ee60e445a20fad5dcaa9d31731d4c67f]
reverse link NavigableSpace to GeneralSpace--><path d="M113.03,273.9462 C103.29,291.0963 93.26,308.7763 85.39,322.6563 " fill="none" id="NavigableSpace&lt;-GeneralSpace" style="stroke: #A80036; stroke-width: 1.0;"/><polygon fill="none" points="107,270.3663,122.96,256.4263,119.18,277.2763,107,270.3663" style="stroke: #A80036; stroke-width: 1.0;"/><!--MD5=[5ede915de2d5afe6a393279234bb211f]
reverse link NavigableSpace to TransferSpace--><path d="M184.43,273.9462 C194.29,291.0963 204.45,308.7763 212.42,322.6563 " fill="none" id="NavigableSpace&lt;-TransferSpace" style="stroke: #A80036; stroke-width: 1.0;"/><polygon fill="none" points="178.26,277.2563,174.37,256.4263,190.4,270.2863,178.26,277.2563" style="stroke: #A80036; stroke-width: 1.0;"/><!--MD5=[e2f48e8fff747b6a82021481c8d3419c]
reverse link TransferSpace to AnchorSpace--><path d="M172.45,388.5063 C149.22,404.3663 122.74,422.4463 101.71,436.8162 " fill="none" id="TransferSpace&lt;-AnchorSpace" style="stroke: #A80036; stroke-width: 1.0;"/><polygon fill="none" points="168.59,382.6663,189.05,377.1663,176.48,394.2263,168.59,382.6663" style="stroke: #A80036; stroke-width: 1.0;"/><!--MD5=[665895d97f8225ce537344910ab702a5]
reverse link TransferSpace to ConnectionSpace--><path d="M227.5,397.2763 C227.5,410.7763 227.5,425.0363 227.5,436.8162 " fill="none" id="TransferSpace&lt;-ConnectionSpace" style="stroke: #A80036; stroke-width: 1.0;"/><polygon fill="none" points="220.5,397.1663,227.5,377.1663,234.5,397.1663,220.5,397.1663" style="stroke: #A80036; stroke-width: 1.0;"/><!--MD5=[4503b747c03ccac972934207a5115dd9]
reverse link TransferSpace to TransitionSpace--><path d="M284.86,388.0363 C309.53,404.0163 337.79,422.3063 360.19,436.8162 " fill="none" id="TransferSpace&lt;-TransitionSpace" style="stroke: #A80036; stroke-width: 1.0;"/><polygon fill="none" points="281.05,393.9063,268.06,377.1663,288.65,382.1563,281.05,393.9063" style="stroke: #A80036; stroke-width: 1.0;"/><!--MD5=[fa665a1dc1faa67ff431bc08f4c28a8c]
reverse link IndoorCore:CellSpaceBoundary to NavigableBoundary--><path d="M675.5,118.2362 C675.5,139.6963 675.5,164.9063 675.5,183.3662 " fill="none" id="IndoorCore:CellSpaceBoundary&lt;-NavigableBoundary" style="stroke: #A80036; stroke-width: 1.0;"/><polygon fill="none" points="668.5,118.0263,675.5,98.0263,682.5,118.0263,668.5,118.0263" style="stroke: #A80036; stroke-width: 1.0;"/><!--MD5=[62db8d39b749573c37effcae037f85b1]
reverse link NavigableBoundary to TransferBoundary--><path d="M675.5,257.7963 C675.5,279.4763 675.5,304.4863 675.5,322.8162 " fill="none" id="NavigableBoundary&lt;-TransferBoundary" style="stroke: #A80036; stroke-width: 1.0;"/><polygon fill="none" points="668.5,257.5963,675.5,237.5963,682.5,257.5963,668.5,257.5963" style="stroke: #A80036; stroke-width: 1.0;"/><!--MD5=[ec3f5d2f3c21bd29d672d5482f90824b]
reverse link TransferBoundary to ConnectionBoundary--><path d="M640.95,392.9663 C628.86,407.6863 615.64,423.7763 604.93,436.8162 " fill="none" id="TransferBoundary&lt;-ConnectionBoundary" style="stroke: #A80036; stroke-width: 1.0;"/><polygon fill="none" points="635.83,388.1763,653.93,377.1663,646.64,397.0662,635.83,388.1763" style="stroke: #A80036; stroke-width: 1.0;"/><!--MD5=[6d4d05ea0f5d9cb99556b9584995d92a]
reverse link TransferBoundary to AnchorBoundary--><path d="M710.05,392.9663 C722.14,407.6863 735.36,423.7763 746.07,436.8162 " fill="none" id="TransferBoundary&lt;-AnchorBoundary" style="stroke: #A80036; stroke-width: 1.0;"/><polygon fill="none" points="704.36,397.0662,697.07,377.1663,715.17,388.1763,704.36,397.0662" style="stroke: #A80036; stroke-width: 1.0;"/><!--MD5=[8ca94e3f6c1120abccee00a8d962e7f3]
reverse link gml:AbstractFeature to Route--><path d="M1334.51,86.3963 C1243.56,98.5462 1106.39,121.1263 991.5,157.9063 C985.73,159.7563 979.88,161.8263 974.02,164.0562 " fill="none" id="gml:AbstractFeature&lt;-Route" style="stroke: #A80036; stroke-width: 1.0;"/><polygon fill="none" points="1333.87,79.4262,1354.61,83.7863,1335.68,93.3062,1333.87,79.4262" style="stroke: #A80036; stroke-width: 1.0;"/><!--MD5=[87cc33c458eb056cd6d073e7daec83d9]
reverse link gml:AbstractFeature to RouteNodes--><path d="M1364.85,106.2362 C1317.67,127.4563 1255.47,155.4362 1207.75,176.9063 " fill="none" id="gml:AbstractFeature&lt;-RouteNodes" style="stroke: #A80036; stroke-width: 1.0;"/><polygon fill="none" points="1361.99,99.8463,1383.1,98.0263,1367.73,112.6162,1361.99,99.8463" style="stroke: #A80036; stroke-width: 1.0;"/><!--MD5=[feed7f80a6da1541f1293f082e96772c]
reverse link gml:AbstractFeatureMember to RouteNodeMember--><path d="M2332.54,114.2462 C2317.92,134.1162 2300.38,157.9362 2286.52,176.7763 " fill="none" id="gml:AbstractFeatureMember&lt;-RouteNodeMember" style="stroke: #A80036; stroke-width: 1.0;"/><polygon fill="none" points="2326.99,109.9862,2344.48,98.0263,2338.26,118.2863,2326.99,109.9862" style="stroke: #A80036; stroke-width: 1.0;"/><!--MD5=[8489725e1f99245b1bb3fd26648ef48b]
reverse link gml:AbstractFeature to Path--><path d="M1434.5,118.2063 C1434.5,137.2263 1434.5,159.1762 1434.5,176.7763 " fill="none" id="gml:AbstractFeature&lt;-Path" style="stroke: #A80036; stroke-width: 1.0;"/><polygon fill="none" points="1427.5,118.0263,1434.5,98.0263,1441.5,118.0263,1427.5,118.0263" style="stroke: #A80036; stroke-width: 1.0;"/><!--MD5=[61849c88124fa0b11070bab3a1ab0494]
reverse link gml:AbstractFeatureMember to RouteSegmentMember--><path d="M2390.75,114.2462 C2405.52,134.1162 2423.24,157.9362 2437.24,176.7763 " fill="none" id="gml:AbstractFeatureMember&lt;-RouteSegmentMember" style="stroke: #A80036; stroke-width: 1.0;"/><polygon fill="none" points="2385.01,118.2563,2378.69,98.0263,2396.24,109.8963,2385.01,118.2563" style="stroke: #A80036; stroke-width: 1.0;"/><!--MD5=[e99e2af32e6809363f36d7a0d8863ee9]
reverse link gml:AbstractFeature to RouteSegment--><path d="M1506.98,105.9563 C1542.95,121.3562 1587.35,140.3763 1628.23,157.8863 " fill="none" id="gml:AbstractFeature&lt;-RouteSegment" style="stroke: #A80036; stroke-width: 1.0;"/><polygon fill="none" points="1504.11,112.3363,1488.48,98.0263,1509.62,99.4663,1504.11,112.3363" style="stroke: #A80036; stroke-width: 1.0;"/><!--MD5=[f655bf585b461f65f8a684479d41ce67]
reverse link gml:AbstractFeature to RouteNode--><path d="M1534.13,86.5163 C1630.56,99.1363 1780.27,122.3863 1906.5,157.9063 C1919.09,161.4463 1932.13,165.7563 1944.9,170.3662 " fill="none" id="gml:AbstractFeature&lt;-RouteNode" style="stroke: #A80036; stroke-width: 1.0;"/><polygon fill="none" points="1533.04,93.4362,1514.09,83.9463,1534.82,79.5562,1533.04,93.4362" style="stroke: #A80036; stroke-width: 1.0;"/><!--MD5=[41b2560a872018357bafdb57b09cea9f]
@startuml
title
  IndoorGML - 1.0 - Indoorgmlnavi - Only XSD based
  http://www.opengis.net/indoorgml/1.0/navigation
end title

class "NavigableSpace" <<DataType>> {
  # class : gml:Code
  # function : gml:Code
  # usage : gml:Code
}
class "GeneralSpace" <<DataType>>
class "TransferSpace" <<DataType>>
class "AnchorSpace" <<DataType>>
class "ConnectionSpace" <<DataType>>
class "TransitionSpace" <<DataType>>
class "NavigableBoundary" <<DataType>>
class "TransferBoundary" <<DataType>>
class "ConnectionBoundary" <<DataType>>
class "AnchorBoundary" <<DataType>>
class "Route" <<FeatureType>> {
  # startRouteNode : RouteNode
  # endRouteNode : RouteNode
  # routeNodes : RouteNodes
  # path : Path
}
class "RouteNodes" <<FeatureType>> {
  # nodeMember : RouteNodeMember [2..*]
}
class "RouteNodeMember" <<ObjectType>> {
  #  : RouteNode
}
class "Path" <<FeatureType>> {
  # routeMember : RouteSegmentMember [0..*]
}
class "RouteSegmentMember" <<ObjectType>> {
  #  : RouteSegment
}
class "RouteSegment" <<FeatureType>> {
  # weight : xs:double
  # connects : RouteNode [2]
  # referencedTransition : IndoorCore:Transition
  # geometry : gml:Curve
}
class "RouteNode" <<FeatureType>> {
  # referencedState : IndoorCore:State
  # geometry : gml:Point
}
class "RouteNodeProperty" $property {
  #  : RouteNode
}

class "IndoorCore:CellSpace"
class "IndoorCore:CellSpaceBoundary"
abstract class "gml:AbstractFeature"
abstract class "gml:AbstractFeatureMember"

"IndoorCore:CellSpace" <|- - "NavigableSpace"
"NavigableSpace" <|- - "GeneralSpace"
"NavigableSpace" <|- - "TransferSpace"
"TransferSpace" <|- - "AnchorSpace"
"TransferSpace" <|- - "ConnectionSpace"
"TransferSpace" <|- - "TransitionSpace"
"IndoorCore:CellSpaceBoundary" <|- - "NavigableBoundary"
"NavigableBoundary" <|- - "TransferBoundary"
"TransferBoundary" <|- - "ConnectionBoundary"
"TransferBoundary" <|- - "AnchorBoundary"
"gml:AbstractFeature" <|- - "Route"
"gml:AbstractFeature" <|- - "RouteNodes"
"gml:AbstractFeatureMember" <|- - "RouteNodeMember"
"gml:AbstractFeature" <|- - "Path"
"gml:AbstractFeatureMember" <|- - "RouteSegmentMember"
"gml:AbstractFeature" <|- - "RouteSegment"
"gml:AbstractFeature" <|- - "RouteNode"

remove $property


@enduml

PlantUML version 1.2020.02(Sun Mar 01 11:22:07 CET 2020)
(GPL source distribution)
Java Runtime: OpenJDK Runtime Environment
JVM: OpenJDK 64-Bit Server VM
Java Version: 21.0.11+10-1-24.04.2-Ubuntu
Operating System: Linux
Default Encoding: UTF-8
Language: en
Country: US
--></g></svg>